<svg id="svg" version="1.1" xmlns="http://www.w3.org/2000/svg" xmlns:xlink="http://www.w3.org/1999/xlink" width="400" height="348.9614243323442" viewBox="0, 0, 400,348.9614243323442"><g id="svgg"><path id="path0" d="M325.239 117.399 C 324.289 118.121,324.080 121.040,324.873 122.513 C 325.235 123.185,326.868 126.169,328.504 129.145 C 330.139 132.120,334.001 139.503,337.087 145.550 C 340.172 151.597,343.892 158.743,345.352 161.431 C 348.100 166.489,349.421 170.100,350.097 174.406 C 350.360 176.078,350.860 177.529,351.601 178.769 L 352.712 180.628 362.806 180.721 L 372.900 180.814 373.884 179.870 C 374.426 179.351,374.869 178.726,374.869 178.481 C 374.869 178.236,375.183 177.867,375.567 177.661 C 376.256 177.293,376.265 176.931,376.265 151.151 L 376.265 125.014 377.419 122.804 C 378.054 121.588,378.515 120.327,378.444 120.001 C 378.373 119.675,378.472 119.116,378.663 118.759 C 378.983 118.160,378.732 118.062,375.457 117.511 C 370.792 116.727,326.254 116.628,325.239 117.399 M344.852 195.675 C 344.180 195.969,341.981 196.761,339.965 197.435 L 336.300 198.661 313.613 198.590 C 284.198 198.498,286.015 198.452,285.166 199.302 C 284.399 200.068,284.146 204.534,284.809 205.585 C 285.286 206.341,301.857 206.507,349.215 206.231 C 392.232 205.980,388.781 206.079,389.029 205.089 C 389.392 203.645,389.031 198.773,388.569 198.866 C 388.329 198.914,388.133 198.826,388.133 198.670 C 388.133 198.515,385.539 198.382,382.369 198.374 L 376.606 198.360 374.515 196.737 L 372.425 195.113 359.249 195.127 C 348.204 195.139,345.876 195.227,344.852 195.675 M248.193 198.236 C 247.918 198.407,245.706 198.459,243.275 198.351 C 238.068 198.119,238.398 197.807,238.798 202.579 C 239.088 206.050,239.558 207.353,240.264 206.647 C 240.465 206.446,242.050 206.271,243.787 206.257 C 245.524 206.243,247.653 206.125,248.517 205.995 L 250.087 205.759 250.199 204.014 C 250.424 200.506,249.378 197.494,248.193 198.236 " stroke="none" fill="#f77625" fill-rule="evenodd"></path><path id="path1" d="M209.227 34.169 C 209.333 34.341,209.185 34.572,208.899 34.682 C 208.612 34.792,208.377 34.730,208.377 34.544 C 208.377 34.358,208.132 34.206,207.833 34.206 C 207.534 34.206,207.390 34.369,207.513 34.569 C 207.660 34.807,207.408 34.849,206.783 34.693 C 206.152 34.534,205.906 34.578,206.057 34.821 C 206.198 35.050,206.021 35.119,205.585 35.005 C 205.179 34.899,204.887 34.994,204.887 35.233 C 204.887 35.459,204.725 35.544,204.528 35.422 C 203.834 34.993,201.199 36.651,199.127 38.820 L 197.033 41.012 199.215 38.929 C 200.414 37.783,201.396 36.936,201.396 37.047 C 201.396 37.380,197.783 40.959,197.033 41.369 C 196.649 41.579,196.357 42.017,196.384 42.342 C 196.410 42.666,196.253 42.934,196.035 42.937 C 195.816 42.940,195.873 43.095,196.161 43.281 C 196.595 43.562,196.565 43.621,195.986 43.630 C 195.407 43.639,195.377 43.698,195.812 43.979 C 196.246 44.260,196.216 44.319,195.637 44.328 C 195.058 44.337,195.028 44.396,195.462 44.677 C 195.910 44.966,195.897 45.016,195.375 45.021 C 194.845 45.025,194.583 45.624,194.723 46.510 C 194.746 46.654,194.589 46.771,194.375 46.771 C 194.157 46.771,194.065 47.079,194.167 47.469 C 194.268 47.853,194.236 48.168,194.096 48.168 C 193.957 48.168,193.873 49.463,193.909 51.047 C 193.972 53.739,193.961 53.790,193.733 51.832 L 193.489 49.738 193.428 52.289 C 193.382 54.246,193.470 54.781,193.805 54.585 C 194.045 54.445,193.966 54.645,193.630 55.029 C 193.028 55.717,192.772 56.740,193.281 56.423 C 193.425 56.333,193.493 57.918,193.432 59.945 C 193.369 62.028,193.466 63.721,193.653 63.839 C 195.444 64.970,196.161 65.809,196.161 66.777 L 196.161 67.830 197.443 66.548 C 199.778 64.213,201.867 63.114,204.350 62.915 C 206.902 62.710,207.196 62.381,206.443 60.578 C 205.048 57.241,206.121 54.803,208.988 54.794 C 211.329 54.786,211.548 54.553,211.625 51.974 C 211.899 42.890,210.748 33.857,209.317 33.857 C 209.161 33.857,209.121 33.998,209.227 34.169 M264.485 58.551 C 264.149 58.627,263.874 58.891,263.874 59.137 C 263.874 59.383,263.483 60.007,263.004 60.523 C 262.156 61.438,262.149 61.486,262.742 62.392 C 263.297 63.241,263.354 64.736,263.387 79.393 C 263.408 88.231,263.438 95.855,263.456 96.335 C 263.480 97.021,262.946 122.665,262.878 124.084 C 262.725 127.248,263.545 143.233,263.881 143.638 C 264.378 144.237,271.001 144.381,271.902 143.812 C 273.404 142.864,273.383 100.469,271.880 98.965 C 271.681 98.766,270.388 98.593,269.005 98.580 C 262.481 98.518,262.498 95.535,269.033 93.709 C 270.562 93.281,271.485 92.786,272.087 92.071 L 272.949 91.046 272.949 78.724 C 272.949 68.443,273.038 66.191,273.484 65.122 C 274.204 63.400,273.699 61.290,272.877 62.584 C 272.691 62.876,272.609 62.834,272.606 62.446 C 272.602 62.097,271.590 61.416,269.880 60.614 C 266.956 59.241,266.131 59.015,267.211 59.880 C 267.861 60.401,267.857 60.407,267.103 60.042 C 266.671 59.833,266.318 59.515,266.318 59.337 C 266.318 58.868,265.199 58.388,264.485 58.551 M251.347 63.225 C 250.538 64.723,249.142 66.925,248.244 68.119 C 246.762 70.091,246.612 70.467,246.605 72.230 C 246.596 74.330,245.780 76.290,243.953 78.599 L 242.935 79.885 243.981 80.629 C 245.421 81.655,245.832 81.438,249.423 77.747 C 254.643 72.383,256.856 69.087,258.071 64.868 C 258.688 62.723,258.786 61.749,258.377 61.836 C 258.233 61.866,257.880 61.793,257.592 61.673 C 257.304 61.554,256.112 61.241,254.943 60.979 L 252.817 60.503 251.347 63.225 M210.646 73.285 C 210.262 73.445,208.534 75.008,206.806 76.757 C 204.003 79.595,203.618 79.874,203.229 79.344 C 202.602 78.490,202.628 81.305,203.262 82.821 C 204.191 85.044,210.714 90.954,209.901 88.836 C 209.570 87.972,211.250 88.191,212.748 89.208 C 214.368 90.307,216.215 90.153,216.800 88.869 C 217.478 87.380,214.129 75.050,212.688 73.735 C 211.748 72.876,211.668 72.858,210.646 73.285 M298.255 77.487 C 299.782 79.023,301.109 80.279,301.205 80.279 C 301.301 80.279,300.131 79.023,298.604 77.487 C 297.077 75.951,295.749 74.695,295.653 74.695 C 295.557 74.695,296.728 75.951,298.255 77.487 M233.501 79.494 C 231.224 82.076,228.144 88.844,229.004 89.375 C 229.224 89.511,229.681 92.013,230.027 94.985 C 231.235 105.337,232.866 109.603,241.487 124.956 C 242.942 127.548,244.149 130.009,244.169 130.424 C 244.188 130.840,244.709 131.605,245.326 132.124 C 245.943 132.643,246.698 133.559,247.004 134.160 C 247.854 135.827,254.025 145.052,254.622 145.548 C 254.988 145.851,255.281 145.875,255.585 145.625 C 255.825 145.428,256.806 145.160,257.766 145.030 C 261.129 144.574,261.421 144.078,259.983 141.260 C 259.571 140.452,258.643 138.141,257.922 136.126 C 255.875 130.405,255.312 129.079,251.847 121.815 C 250.061 118.072,248.326 114.145,247.991 113.089 C 247.656 112.033,246.869 110.305,246.243 109.250 C 243.363 104.392,239.791 95.846,239.791 93.813 C 239.791 93.008,239.510 92.035,239.121 91.489 C 238.026 89.950,237.231 86.323,237.138 82.432 C 237.066 79.412,236.948 78.746,236.414 78.341 C 235.415 77.584,235.063 77.723,233.501 79.494 M80.890 91.012 C 89.001 91.064,102.273 91.064,110.384 91.012 C 118.495 90.960,111.859 90.917,95.637 90.917 C 79.415 90.917,72.779 90.960,80.890 91.012 M64.375 91.412 C 64.482 91.584,64.326 91.818,64.029 91.932 C 63.720 92.050,63.580 91.991,63.702 91.794 C 64.066 91.205,63.456 91.415,62.927 92.059 C 62.652 92.395,62.526 92.474,62.647 92.234 C 62.975 91.587,62.456 91.705,61.880 92.408 C 61.605 92.744,61.479 92.823,61.600 92.583 C 61.728 92.330,61.603 92.147,61.302 92.147 C 61.016 92.147,60.575 92.343,60.322 92.583 C 60.068 92.823,59.473 93.063,58.999 93.116 C 57.709 93.261,54.673 95.071,54.280 95.931 C 54.091 96.345,53.807 96.684,53.649 96.684 C 53.491 96.684,53.462 96.488,53.584 96.248 C 53.706 96.008,53.499 96.158,53.124 96.582 C 52.749 97.006,52.371 97.281,52.284 97.194 C 52.197 97.107,51.746 97.466,51.281 97.992 L 50.436 98.948 51.309 98.252 C 51.789 97.870,51.262 98.462,50.139 99.568 C 48.793 100.893,48.166 101.762,48.302 102.117 C 48.420 102.424,48.361 102.563,48.164 102.441 C 47.974 102.324,47.818 102.381,47.818 102.568 C 47.818 102.755,48.015 102.988,48.255 103.085 C 48.515 103.190,48.445 103.272,48.080 103.288 C 47.744 103.303,47.469 103.482,47.469 103.686 C 47.469 103.889,47.666 103.956,47.906 103.834 C 48.146 103.713,48.067 103.838,47.731 104.114 C 47.028 104.690,46.910 105.209,47.557 104.881 C 47.797 104.760,47.718 104.886,47.382 105.161 C 46.737 105.689,46.528 106.300,47.116 105.936 C 47.314 105.814,47.373 105.954,47.254 106.263 C 47.140 106.559,46.907 106.715,46.735 106.609 C 46.563 106.503,46.422 106.818,46.422 107.309 C 46.422 107.838,46.601 108.167,46.859 108.115 C 47.099 108.067,47.261 108.208,47.219 108.429 C 47.149 108.802,51.311 108.906,72.251 109.056 C 74.680 109.074,74.861 109.024,74.755 108.377 L 74.640 107.679 75.180 108.377 C 75.692 109.039,75.720 108.999,75.731 107.592 C 75.748 105.331,76.436 105.822,76.464 108.115 C 76.482 109.559,76.573 109.926,76.789 109.424 C 77.038 108.844,77.093 108.827,77.113 109.325 C 77.127 109.654,76.824 110.091,76.440 110.297 C 76.056 110.502,75.742 110.957,75.742 111.308 C 75.742 112.664,73.635 116.517,71.893 118.347 C 70.899 119.390,70.190 120.048,70.317 119.808 C 70.444 119.568,70.462 119.372,70.357 119.372 C 70.253 119.372,69.674 120.353,69.071 121.553 C 66.691 126.291,62.470 131.277,57.744 134.933 C 55.885 136.371,53.748 138.625,53.758 139.139 C 53.760 139.305,53.929 139.206,54.133 138.918 C 54.462 138.453,54.486 138.453,54.346 138.918 C 54.259 139.206,54.015 139.403,53.802 139.356 C 53.090 139.200,52.214 140.944,52.707 141.538 C 53.057 141.960,53.042 142.059,52.626 142.059 C 52.049 142.059,52.152 147.164,52.742 147.798 C 53.242 148.334,52.762 148.326,94.607 148.568 C 141.055 148.838,137.872 149.035,135.824 146.014 C 134.722 144.388,133.775 140.944,133.491 137.525 C 133.339 135.690,133.123 135.070,132.358 134.265 C 131.266 133.114,129.244 131.599,129.626 132.218 C 129.768 132.447,129.755 132.635,129.597 132.635 C 129.439 132.635,129.155 132.282,128.966 131.850 C 128.776 131.418,128.386 131.065,128.098 131.065 C 127.810 131.065,127.574 130.881,127.574 130.658 C 127.574 129.971,125.990 128.065,125.613 128.298 C 125.418 128.418,125.288 128.305,125.323 128.045 C 125.454 127.093,125.296 126.666,124.902 126.909 C 124.650 127.065,124.594 127.005,124.753 126.748 C 124.895 126.518,124.603 125.859,124.086 125.245 C 123.580 124.643,122.624 123.076,121.962 121.761 C 121.301 120.447,120.673 119.372,120.568 119.372 C 120.463 119.372,120.468 119.518,120.578 119.697 C 120.689 119.875,120.620 120.120,120.425 120.241 C 120.229 120.361,120.070 120.228,120.070 119.944 C 120.070 119.661,119.357 118.593,118.485 117.572 C 117.613 116.551,116.806 115.321,116.692 114.838 C 116.577 114.356,116.329 113.765,116.140 113.525 C 115.951 113.285,115.759 112.651,115.713 112.116 C 115.623 111.053,115.046 109.890,113.962 108.582 C 113.578 108.120,113.460 107.854,113.700 107.992 C 114.009 108.170,114.136 107.931,114.136 107.176 C 114.136 105.218,116.212 105.619,116.287 107.592 C 116.342 109.021,116.353 109.005,116.579 107.155 L 116.815 105.236 116.872 106.872 C 116.916 108.149,117.062 108.521,117.539 108.569 C 119.937 108.809,141.469 108.868,142.583 108.638 C 143.843 108.378,143.994 108.232,144.130 107.142 L 144.282 105.934 144.542 107.330 C 144.769 108.547,144.791 108.468,144.711 106.713 C 144.643 105.227,144.443 104.557,143.950 104.156 C 143.582 103.858,143.477 103.713,143.717 103.834 C 144.244 104.101,144.255 103.977,143.805 102.794 C 143.593 102.235,143.300 101.975,143.053 102.127 C 142.825 102.268,142.743 102.225,142.866 102.027 C 143.145 101.575,139.843 97.578,137.844 95.949 C 135.428 93.979,132.249 92.513,132.815 93.630 C 132.937 93.870,132.796 93.772,132.503 93.412 C 132.189 93.025,131.742 92.845,131.412 92.971 C 131.049 93.111,130.939 93.047,131.098 92.790 C 131.265 92.520,131.054 92.450,130.429 92.569 C 129.926 92.665,129.598 92.609,129.700 92.445 C 129.801 92.281,129.630 92.147,129.319 92.147 C 128.981 92.147,128.855 92.308,129.004 92.550 C 129.159 92.801,129.099 92.858,128.844 92.700 C 128.619 92.561,128.516 92.318,128.614 92.159 C 129.051 91.452,67.517 90.971,65.364 91.665 C 64.845 91.832,64.830 91.804,65.271 91.487 C 65.704 91.175,65.656 91.109,64.988 91.105 C 64.545 91.102,64.269 91.240,64.375 91.412 M309.128 94.654 L 308.202 95.649 308.205 109.866 C 308.207 117.686,308.369 131.205,308.567 139.909 C 309.004 159.223,309.000 159.245,304.599 165.039 C 302.927 167.240,303.036 167.651,305.617 168.875 C 309.530 170.730,310.893 172.275,315.354 179.913 C 320.810 189.253,327.299 193.337,337.600 193.914 C 340.287 194.065,342.080 194.323,342.408 194.607 C 343.313 195.388,344.683 195.563,345.182 194.961 C 345.431 194.661,345.913 194.415,346.253 194.415 C 346.981 194.415,347.444 193.490,346.839 193.244 C 346.610 193.151,346.696 193.062,347.031 193.047 C 347.774 193.013,349.829 190.269,349.586 189.635 C 349.490 189.385,349.602 189.177,349.836 189.174 C 350.105 189.171,350.069 189.045,349.738 188.831 C 349.280 188.535,349.284 188.492,349.769 188.487 C 350.378 188.481,351.263 186.878,350.944 186.361 C 350.834 186.184,350.950 186.036,351.201 186.033 C 351.533 186.029,351.515 185.935,351.134 185.689 C 350.649 185.376,350.897 185.182,351.615 185.314 C 351.784 185.345,351.838 185.049,351.735 184.657 C 351.632 184.264,351.691 184.031,351.865 184.139 C 352.039 184.246,352.184 184.129,352.186 183.877 C 352.189 183.626,352.292 183.043,352.416 182.581 C 352.572 181.996,352.519 181.816,352.240 181.988 C 351.981 182.148,351.913 182.045,352.048 181.696 C 352.161 181.399,352.395 181.243,352.567 181.349 C 352.739 181.455,352.880 181.371,352.880 181.161 C 352.880 180.952,352.605 180.676,352.269 180.547 C 350.680 179.939,349.271 177.188,348.733 173.647 C 348.243 170.421,347.160 167.179,345.649 164.420 C 343.637 160.745,336.818 147.608,333.187 140.412 C 331.326 136.722,328.482 131.322,326.868 128.412 C 322.875 121.212,322.520 119.762,324.284 117.867 C 324.944 117.159,324.681 115.881,323.876 115.881 C 323.680 115.881,323.616 115.724,323.735 115.532 C 323.853 115.340,323.788 115.183,323.590 115.183 C 323.391 115.183,322.989 114.720,322.697 114.153 C 322.025 112.855,322.018 112.266,322.688 113.438 C 323.447 114.766,323.306 113.946,322.506 112.377 C 322.118 111.617,321.585 110.995,321.322 110.995 C 321.058 110.995,320.747 110.746,320.631 110.443 C 320.280 109.529,320.389 109.427,320.948 110.143 C 321.440 110.772,321.449 110.753,321.072 109.871 C 320.848 109.349,320.507 109.020,320.314 109.140 C 320.116 109.262,320.069 109.184,320.207 108.961 C 320.342 108.742,320.069 108.000,319.601 107.310 C 319.132 106.621,318.679 106.186,318.594 106.344 C 318.509 106.502,318.487 106.435,318.545 106.195 C 318.736 105.413,318.282 104.751,317.685 104.942 C 317.267 105.075,317.227 105.037,317.544 104.809 C 318.069 104.430,317.099 102.122,316.556 102.458 C 316.381 102.566,316.335 102.401,316.454 102.092 C 316.603 101.703,316.431 101.466,315.897 101.327 C 315.315 101.175,315.239 101.052,315.590 100.830 C 315.967 100.591,315.969 100.533,315.599 100.529 C 315.348 100.526,315.239 100.367,315.357 100.175 C 315.651 99.700,314.442 97.717,314.018 97.979 C 313.832 98.094,313.787 98.014,313.918 97.802 C 314.049 97.589,313.585 96.662,312.886 95.741 C 311.542 93.969,311.069 93.434,311.483 94.154 C 311.621 94.394,311.568 94.590,311.364 94.590 C 311.161 94.590,310.995 94.380,310.995 94.124 C 310.995 93.349,310.107 93.601,309.128 94.654 M139.442 97.731 C 140.191 98.499,140.648 99.127,140.456 99.127 C 140.264 99.127,139.493 98.499,138.743 97.731 C 137.994 96.963,137.537 96.335,137.729 96.335 C 137.921 96.335,138.692 96.963,139.442 97.731 M84.527 100.054 C 84.879 100.372,85.166 100.815,85.166 101.038 C 85.166 101.262,85.727 102.100,86.412 102.901 C 87.722 104.432,87.804 105.552,86.631 105.899 C 86.021 106.080,81.025 106.782,78.922 106.982 C 78.272 107.044,77.624 107.282,77.483 107.511 C 77.183 107.997,76.976 107.708,76.651 106.352 C 76.481 105.639,76.541 105.403,76.874 105.479 C 77.595 105.645,79.016 104.335,80.074 102.529 C 81.700 99.753,83.245 98.894,84.527 100.054 M111.888 103.804 C 112.688 104.688,113.520 105.410,113.739 105.410 C 113.957 105.410,114.136 105.584,114.136 105.797 C 114.136 106.011,113.882 106.085,113.563 105.963 C 113.090 105.781,113.065 105.833,113.421 106.262 C 113.792 106.709,113.689 106.754,112.685 106.587 C 112.043 106.480,109.998 106.311,108.139 106.211 C 105.213 106.053,104.660 105.923,104.017 105.239 L 103.275 104.449 104.086 103.506 C 105.963 101.324,109.775 101.470,111.888 103.804 M99.729 110.470 C 111.885 113.336,116.284 126.624,107.988 135.418 C 99.909 143.983,86.182 142.286,80.217 131.986 C 73.525 120.431,85.583 107.135,99.729 110.470 M93.630 112.916 C 92.643 113.622,92.562 115.517,93.483 116.351 C 94.930 117.661,97.731 116.581,97.731 114.714 C 97.731 113.018,95.100 111.865,93.630 112.916 M85.365 115.383 C 84.171 116.577,85.467 119.372,87.216 119.372 C 88.956 119.372,89.342 119.996,88.603 121.617 C 88.040 122.854,87.107 123.040,85.730 122.189 C 83.534 120.832,81.326 121.565,81.326 123.650 C 81.326 125.308,82.640 126.049,85.324 125.904 C 86.545 125.838,86.785 125.962,87.418 126.985 C 89.461 130.290,90.233 131.057,92.142 131.673 C 94.631 132.477,94.839 132.732,93.937 133.879 C 92.552 135.640,93.458 137.871,95.559 137.871 C 97.936 137.871,98.907 135.587,97.214 133.981 C 95.924 132.757,96.094 132.466,98.920 131.069 C 101.096 129.994,101.735 129.465,102.956 127.723 C 104.448 125.597,104.546 125.534,106.223 125.647 C 107.257 125.716,108.551 124.824,108.551 124.042 C 108.551 123.310,107.163 122.770,105.837 122.985 C 104.318 123.231,103.582 122.852,102.649 121.342 C 101.662 119.746,101.719 119.492,103.165 119.015 C 104.805 118.474,105.376 117.286,104.579 116.070 C 103.427 114.313,101.134 115.185,100.659 117.562 C 100.455 118.582,100.325 118.674,99.084 118.674 C 97.374 118.674,97.378 119.085,99.106 120.959 C 103.919 126.181,96.421 132.211,91.261 127.267 C 88.991 125.092,89.035 123.580,91.440 121.058 C 93.332 119.074,93.356 118.878,91.705 118.860 C 90.712 118.849,90.543 118.688,90.055 117.283 C 89.277 115.048,86.731 114.016,85.365 115.383 M62.681 131.343 C 61.463 132.630,60.334 133.682,60.172 133.682 C 60.011 133.682,60.966 132.587,62.294 131.249 C 65.348 128.171,65.623 128.238,62.681 131.343 M84.226 130.068 C 84.017 130.611,84.896 131.588,85.593 131.588 C 86.122 131.588,86.300 130.543,85.860 130.013 C 85.291 129.327,84.500 129.353,84.226 130.068 M101.990 131.309 C 100.943 132.356,102.021 134.729,103.543 134.729 C 104.239 134.729,105.061 133.687,105.061 132.805 C 105.061 131.392,102.940 130.359,101.990 131.309 M86.756 132.255 C 86.229 133.107,87.706 135.079,88.873 135.079 C 89.616 135.079,90.401 134.207,90.401 133.381 C 90.401 132.278,87.328 131.329,86.756 132.255 M132.134 134.454 C 132.697 135.071,132.847 135.346,132.465 135.065 C 131.185 134.123,130.407 133.333,130.759 133.333 C 130.951 133.333,131.570 133.838,132.134 134.454 M14.660 153.255 C 15.049 153.527,14.892 153.563,14.048 153.396 C 12.851 153.161,11.037 154.003,10.080 155.240 C 9.640 155.809,9.655 155.809,10.330 155.236 C 10.726 154.900,11.255 154.625,11.506 154.625 C 11.756 154.625,11.562 154.939,11.074 155.323 C 10.586 155.707,10.024 156.021,9.826 156.021 C 9.628 156.021,9.353 156.202,9.216 156.424 C 9.062 156.674,9.120 156.732,9.370 156.578 C 9.609 156.430,9.773 156.550,9.773 156.870 C 9.773 157.168,9.459 157.607,9.075 157.847 C 8.691 158.087,8.377 158.412,8.377 158.569 C 8.377 158.726,8.495 158.781,8.639 158.692 C 8.783 158.603,8.901 159.835,8.901 161.430 C 8.901 163.024,8.783 164.257,8.639 164.168 C 8.495 164.080,8.377 164.174,8.377 164.377 C 8.377 164.581,8.529 164.747,8.715 164.747 C 8.901 164.747,8.963 164.983,8.852 165.271 C 8.742 165.558,8.834 165.794,9.058 165.794 C 9.282 165.794,9.370 165.948,9.254 166.136 C 8.618 167.165,12.517 170.398,13.456 169.619 C 13.884 169.263,13.941 169.281,13.774 169.716 C 13.599 170.173,14.018 170.225,16.820 170.095 C 21.133 169.893,21.337 169.838,22.906 168.424 C 23.898 167.531,24.584 167.204,25.480 167.197 C 26.152 167.191,28.203 167.087,30.039 166.966 L 33.376 166.745 35.199 168.364 L 37.022 169.983 104.657 169.983 L 172.293 169.983 174.133 168.412 L 175.973 166.841 181.093 167.055 L 186.213 167.269 188.307 168.656 C 190.144 169.872,190.589 170.022,191.932 169.876 C 192.883 169.772,193.279 169.824,192.979 170.015 C 192.618 170.243,192.695 170.322,193.281 170.326 C 193.762 170.330,194.066 170.121,194.066 169.787 C 194.066 169.488,194.195 169.323,194.353 169.421 C 195.110 169.888,198.742 164.016,199.672 160.820 C 199.884 160.090,199.832 159.860,199.452 159.860 C 199.178 159.860,198.953 159.556,198.953 159.183 C 198.953 158.810,198.793 158.407,198.598 158.286 C 198.403 158.166,198.334 157.921,198.444 157.742 C 198.555 157.563,198.469 157.417,198.255 157.417 C 198.040 157.417,197.952 157.276,198.058 157.104 C 198.310 156.696,196.330 154.571,196.004 154.898 C 195.867 155.035,195.865 154.676,195.999 154.101 C 196.232 153.102,196.219 153.086,195.702 153.752 C 195.255 154.328,195.080 154.370,194.701 153.993 C 194.321 153.616,194.362 153.572,194.939 153.742 C 195.487 153.904,195.468 153.860,194.849 153.534 C 194.255 153.221,193.846 153.217,193.191 153.516 C 192.712 153.733,192.321 153.771,192.321 153.599 C 192.321 153.427,192.517 153.208,192.757 153.111 C 192.997 153.014,180.895 152.922,165.864 152.907 L 138.535 152.880 136.431 154.363 L 134.328 155.846 95.000 155.846 C 51.764 155.846,55.103 156.008,52.531 153.785 C 51.331 152.749,50.892 152.683,49.813 153.377 C 46.271 155.656,39.972 155.975,37.242 154.014 L 35.662 152.880 24.899 152.885 C 17.310 152.889,14.291 152.998,14.660 153.255 M8.142 161.431 C 8.144 162.775,8.207 163.282,8.283 162.558 C 8.358 161.833,8.357 160.734,8.280 160.114 C 8.203 159.495,8.141 160.087,8.142 161.431 M17.008 170.584 C 17.628 170.661,18.727 170.662,19.451 170.586 C 20.175 170.511,19.668 170.448,18.325 170.446 C 16.981 170.445,16.388 170.506,17.008 170.584 M70.942 170.593 C 89.516 170.643,119.908 170.643,138.482 170.593 C 157.055 170.543,141.859 170.503,104.712 170.503 C 67.565 170.503,52.369 170.543,70.942 170.593 M340.893 298.696 C 341.115 298.837,336.814 298.903,331.336 298.841 L 321.376 298.729 320.286 299.748 C 318.035 301.855,317.817 301.920,312.988 301.920 C 308.179 301.920,307.813 301.822,305.609 299.946 L 304.237 298.778 295.594 298.778 C 287.768 298.778,286.907 298.836,286.494 299.389 C 286.244 299.725,285.465 300.428,284.764 300.951 L 283.490 301.902 274.221 301.931 C 267.957 301.951,264.713 301.833,264.216 301.567 C 263.687 301.284,263.353 301.279,263.025 301.551 C 262.710 301.813,255.839 301.946,240.796 301.984 C 213.776 302.051,214.974 302.053,214.136 301.933 C 213.752 301.878,205.063 301.933,194.827 302.055 C 174.154 302.303,175.167 302.398,172.589 299.967 L 171.329 298.778 104.413 298.778 L 37.496 298.778 35.887 300.298 C 33.999 302.082,33.279 302.269,28.296 302.269 C 24.271 302.269,24.090 302.201,21.500 299.738 L 20.491 298.778 10.507 298.806 C 5.016 298.821,0.720 298.913,0.960 299.010 C 1.200 299.106,1.396 299.335,1.396 299.518 C 1.396 299.717,1.124 299.705,0.716 299.486 C 0.054 299.132,0.036 299.282,0.036 305.041 C 0.036 310.342,0.094 310.937,0.599 310.743 C 0.974 310.599,1.077 310.663,0.909 310.935 C 0.717 311.247,47.895 311.344,200.022 311.344 C 385.914 311.344,399.355 311.305,398.908 310.763 C 398.475 310.238,398.503 310.221,399.197 310.591 L 399.964 311.000 399.964 305.061 C 399.964 299.282,399.946 299.132,399.284 299.486 C 398.876 299.705,398.604 299.717,398.604 299.518 C 398.604 299.335,398.800 299.106,399.040 299.010 C 399.280 298.913,397.248 298.821,394.525 298.806 L 389.574 298.778 387.948 300.262 C 384.823 303.114,377.259 303.076,374.346 300.194 C 373.142 299.003,372.733 298.811,371.379 298.801 C 370.446 298.794,369.989 298.904,370.254 299.072 C 370.528 299.246,370.224 299.345,369.470 299.329 C 368.167 299.300,367.825 298.937,368.848 298.670 C 369.184 298.582,362.941 298.494,354.974 298.475 C 347.007 298.456,340.670 298.555,340.893 298.696 " stroke="none" fill="#1b90c1" fill-rule="evenodd"></path><path id="path2" d="M220.985 32.437 C 218.713 33.020,216.221 35.601,215.694 37.917 C 214.653 42.490,216.425 58.310,218.466 62.665 C 224.207 74.918,231.118 77.648,242.321 72.089 C 244.030 71.242,245.612 70.611,245.838 70.687 C 246.903 71.047,253.084 61.087,252.347 60.198 C 251.735 59.461,252.149 58.759,253.648 57.988 C 259.059 55.205,259.273 48.257,254.031 45.519 C 250.240 43.538,247.127 45.997,247.122 50.977 C 247.120 53.161,246.728 53.752,245.282 53.752 C 242.846 53.752,242.537 53.109,242.249 47.446 C 241.892 40.410,238.117 35.543,231.135 33.116 C 228.904 32.341,222.921 31.941,220.985 32.437 M229.065 33.672 C 236.292 35.203,241.174 40.761,241.185 47.469 C 241.194 52.997,241.942 54.424,244.982 54.716 C 247.338 54.943,248.167 54.125,248.169 51.571 C 248.175 46.416,251.326 44.271,254.630 47.172 C 258.178 50.287,257.448 54.841,253.045 57.073 C 251.005 58.107,250.611 58.741,250.611 60.992 C 250.611 62.723,249.153 65.734,247.416 67.592 C 246.620 68.444,241.624 71.338,238.743 72.616 C 235.932 73.864,229.614 73.876,227.100 72.638 C 224.280 71.250,219.343 63.715,217.811 58.464 C 217.017 55.741,216.551 39.373,217.219 37.637 C 218.814 33.487,222.449 32.270,229.065 33.672 M199.118 39.102 C 197.984 40.248,197.165 41.187,197.299 41.187 C 197.589 41.187,201.430 37.265,201.283 37.118 C 201.227 37.062,200.253 37.955,199.118 39.102 M193.832 51.483 C 193.833 52.827,193.896 53.334,193.972 52.610 C 194.048 51.886,194.046 50.786,193.969 50.167 C 193.892 49.547,193.830 50.140,193.832 51.483 M208.955 54.770 C 206.537 55.028,205.934 55.638,205.934 57.826 C 205.934 60.121,206.799 61.913,208.239 62.600 C 209.585 63.242,210.572 65.036,210.985 67.595 C 211.283 69.439,211.989 70.066,214.247 70.494 C 219.255 71.444,223.407 76.473,223.682 81.922 C 223.841 85.055,223.119 86.726,220.287 89.786 C 216.909 93.433,217.453 97.382,221.333 97.382 C 223.340 97.382,223.641 97.109,225.277 93.798 C 225.972 92.391,227.027 90.708,227.621 90.057 C 228.216 89.406,229.079 87.872,229.540 86.649 C 230.851 83.165,231.920 81.266,233.661 79.330 C 235.629 77.141,235.557 77.079,230.720 76.759 C 223.079 76.255,218.875 71.783,214.836 59.860 C 213.523 55.986,212.554 54.407,211.545 54.502 C 211.242 54.530,210.077 54.651,208.955 54.770 M212.296 56.457 C 212.591 56.793,212.940 57.461,213.073 57.941 C 213.560 59.707,215.837 65.504,216.804 67.442 C 218.096 70.031,218.146 69.937,215.637 69.653 C 212.593 69.309,212.316 69.089,211.835 66.641 C 211.340 64.130,210.447 62.696,208.482 61.265 C 206.165 59.578,205.726 56.705,207.701 56.153 C 209.434 55.670,211.738 55.822,212.296 56.457 M193.167 56.663 C 193.068 56.920,193.036 58.372,193.094 59.891 L 193.201 62.653 193.372 59.423 C 193.542 56.211,193.509 55.771,193.167 56.663 M261.338 61.640 C 261.223 61.756,260.597 61.850,259.948 61.850 C 258.791 61.850,258.758 61.891,258.309 63.916 C 257.323 68.359,254.924 72.094,249.423 77.747 C 245.819 81.451,245.424 81.657,243.952 80.609 C 243.158 80.043,242.776 79.946,242.486 80.236 C 241.884 80.839,240.975 80.709,239.088 79.753 L 237.362 78.879 237.131 79.797 C 236.525 82.211,237.786 89.614,239.123 91.492 C 239.511 92.036,239.791 93.010,239.791 93.813 C 239.791 95.951,244.001 105.812,246.605 109.773 C 247.110 110.541,247.434 110.887,247.326 110.542 C 247.218 110.196,246.891 106.898,246.599 103.212 C 246.307 99.526,245.912 95.938,245.719 95.239 C 245.387 94.031,243.012 91.449,242.233 91.449 C 241.430 91.449,241.997 89.578,243.650 86.769 C 245.938 82.882,246.128 82.880,249.851 86.694 C 253.076 89.998,253.092 90.043,251.658 91.676 C 250.180 93.359,250.294 94.266,252.734 100.304 C 253.902 103.193,256.119 108.940,257.659 113.075 C 261.094 122.293,262.263 124.694,262.890 123.822 C 262.964 123.719,263.502 97.608,263.456 96.335 C 263.438 95.855,263.408 88.231,263.387 79.393 C 263.354 64.634,263.300 63.245,262.732 62.377 C 262.118 61.438,261.740 61.238,261.338 61.640 M202.174 63.283 C 200.716 63.815,197.591 66.108,196.684 67.311 C 194.831 69.770,195.971 80.362,198.549 84.636 C 200.151 87.292,200.603 88.925,200.032 89.993 C 199.481 91.022,199.561 91.449,200.307 91.449 C 201.020 91.449,201.573 92.541,201.947 94.689 C 202.303 96.739,203.209 97.033,209.178 97.033 C 215.094 97.033,215.554 96.808,215.504 93.942 C 215.461 91.435,214.584 90.052,213.036 90.052 C 209.869 90.052,204.050 85.545,203.093 82.351 C 201.968 78.594,203.711 73.317,206.682 71.489 C 208.661 70.271,208.937 69.541,208.399 66.948 C 207.578 62.992,205.815 61.955,202.174 63.283 M262.927 65.794 C 263.077 67.138,263.107 70.377,262.992 72.992 C 262.877 75.607,262.787 87.073,262.793 98.472 C 262.805 123.465,262.729 123.793,259.181 114.256 C 258.264 111.791,256.195 106.447,254.585 102.381 C 251.532 94.672,251.424 94.283,252.027 93.155 C 252.329 92.593,252.697 92.484,254.022 92.568 C 256.789 92.742,256.457 91.928,251.865 87.278 C 246.960 82.312,246.989 82.480,250.426 78.826 C 253.319 75.751,256.652 70.974,258.531 67.211 C 260.981 62.302,262.481 61.819,262.927 65.794 M205.534 64.023 C 208.193 65.398,208.333 68.954,205.801 70.824 C 198.367 76.316,202.365 88.960,212.329 91.469 C 214.181 91.936,214.980 93.354,214.339 95.039 C 213.484 97.287,202.792 96.661,202.792 94.363 C 202.792 94.105,202.487 92.991,202.114 91.886 C 201.740 90.782,201.331 89.140,201.204 88.239 C 201.072 87.297,200.383 85.589,199.585 84.225 C 193.956 74.597,198.188 60.224,205.534 64.023 M278.248 66.412 C 277.644 67.705,277.536 68.886,277.379 75.916 C 277.128 87.176,277.126 87.172,280.734 84.702 C 285.344 81.546,290.600 80.596,296.660 81.824 C 299.139 82.326,299.605 82.340,299.948 81.917 C 300.543 81.186,301.423 80.978,301.964 81.441 C 302.227 81.666,300.872 80.194,298.952 78.171 C 296.798 75.900,295.231 74.522,294.859 74.572 C 294.527 74.616,294.271 74.544,294.289 74.411 C 294.390 73.701,294.184 73.298,293.717 73.298 C 293.429 73.298,292.880 72.984,292.496 72.600 C 292.112 72.216,291.723 71.889,291.631 71.872 C 290.553 71.674,290.041 71.369,289.868 70.825 C 289.754 70.465,289.544 70.207,289.401 70.251 C 289.015 70.371,286.562 68.997,286.562 68.661 C 286.562 68.501,286.405 68.468,286.213 68.586 C 286.021 68.705,285.864 68.636,285.864 68.432 C 285.864 68.229,285.628 68.063,285.340 68.063 C 285.052 68.063,284.817 67.896,284.817 67.693 C 284.817 67.490,284.672 67.413,284.496 67.522 C 284.319 67.631,283.945 67.491,283.665 67.210 C 283.384 66.929,283.057 66.797,282.939 66.916 C 282.820 67.035,282.723 66.940,282.723 66.704 C 282.723 66.469,282.565 66.374,282.373 66.492 C 282.182 66.611,282.024 66.515,282.024 66.280 C 282.024 66.045,281.926 65.950,281.807 66.070 C 281.687 66.190,280.993 65.983,280.264 65.612 L 278.939 64.936 278.248 66.412 M228.621 77.516 C 233.849 78.156,233.747 78.073,232.159 80.391 C 231.610 81.193,230.803 82.557,230.367 83.421 C 229.930 84.284,228.669 86.248,227.563 87.784 C 226.457 89.319,224.902 91.880,224.107 93.475 L 222.660 96.374 221.204 96.267 C 218.716 96.085,218.712 92.980,221.199 90.494 C 224.381 87.312,225.497 83.887,224.606 80.044 C 223.889 76.953,223.914 76.659,224.869 76.930 C 225.301 77.053,226.990 77.316,228.621 77.516 M242.396 82.024 C 244.738 82.024,244.622 83.241,241.831 87.958 C 239.693 91.572,239.158 91.521,238.164 87.609 C 236.658 81.679,237.048 80.271,239.891 81.375 C 240.810 81.732,241.937 82.024,242.396 82.024 M302.306 82.286 C 302.327 82.430,303.230 83.328,304.313 84.282 L 306.283 86.015 304.375 84.020 C 302.430 81.985,302.240 81.827,302.306 82.286 M289.070 85.535 C 284.538 86.340,280.662 89.384,278.393 93.920 L 277.138 96.429 277.138 120.039 C 277.138 146.622,276.915 144.546,279.929 146.073 C 281.599 146.919,282.410 148.096,281.766 148.740 C 281.562 148.944,279.635 148.917,276.653 148.669 C 274.021 148.450,270.344 148.338,268.482 148.420 C 260.781 148.759,255.148 148.070,255.148 146.791 C 255.148 146.347,254.912 145.788,254.622 145.548 C 254.025 145.052,247.854 135.827,247.004 134.160 C 246.698 133.559,245.936 132.637,245.310 132.110 L 244.173 131.153 242.418 133.039 C 240.262 135.356,232.115 146.158,232.103 146.716 C 232.098 146.938,232.059 152.094,232.015 158.173 L 231.937 169.225 232.783 170.127 L 233.630 171.030 242.731 171.028 L 251.832 171.027 253.403 169.962 C 259.020 166.154,261.364 165.648,271.160 166.130 C 285.604 166.841,289.851 166.760,292.762 165.719 C 301.559 162.576,304.303 157.429,303.889 144.852 C 303.343 128.284,303.465 91.632,304.069 90.710 C 304.387 90.224,304.701 89.445,304.767 88.980 C 304.833 88.514,305.070 88.133,305.294 88.133 C 305.518 88.133,305.832 88.002,305.992 87.842 C 306.152 87.682,306.126 87.583,305.934 87.621 C 305.242 87.761,304.364 87.604,304.404 87.347 C 304.515 86.644,304.326 86.195,304.003 86.394 C 302.981 87.026,300.088 86.953,297.730 86.236 C 294.781 85.341,291.609 85.084,289.070 85.535 M65.391 91.367 C 65.027 91.598,96.154 91.590,117.452 91.354 C 122.059 91.303,112.321 91.227,95.812 91.186 C 79.302 91.144,65.613 91.226,65.391 91.367 M243.809 93.896 C 244.575 94.696,244.876 95.425,245.066 96.950 C 245.467 100.158,245.427 105.410,245.002 105.410 C 244.598 105.410,242.140 100.293,240.846 96.755 C 239.513 93.111,241.354 91.334,243.809 93.896 M310.766 93.714 C 310.988 94.193,311.293 94.586,311.443 94.587 C 311.764 94.590,311.137 93.323,310.676 93.038 C 310.503 92.931,310.544 93.235,310.766 93.714 M138.743 97.731 C 139.493 98.499,140.264 99.127,140.456 99.127 C 140.648 99.127,140.191 98.499,139.442 97.731 C 138.692 96.963,137.921 96.335,137.729 96.335 C 137.537 96.335,137.994 96.963,138.743 97.731 M195.545 100.282 C 195.014 100.519,194.772 100.920,194.789 101.537 C 194.810 102.323,194.849 102.353,195.080 101.763 C 195.520 100.639,221.147 100.878,222.110 102.016 C 222.796 102.827,222.727 104.812,221.985 105.555 C 221.558 105.982,197.086 106.443,195.627 106.051 C 195.069 105.901,194.768 105.963,194.776 106.226 C 194.782 106.449,194.716 114.761,194.630 124.697 C 194.527 136.675,194.591 142.690,194.823 142.547 C 195.014 142.428,194.944 142.781,194.666 143.330 C 194.027 144.593,194.148 147.698,194.903 149.423 C 195.037 149.729,195.191 150.358,195.244 150.819 C 195.297 151.280,195.529 152.111,195.759 152.664 C 195.990 153.217,196.076 154.003,195.952 154.409 C 195.827 154.816,195.844 155.036,195.989 154.899 C 196.330 154.576,198.314 156.690,198.058 157.104 C 197.952 157.276,198.040 157.417,198.255 157.417 C 198.469 157.417,198.555 157.563,198.444 157.742 C 198.334 157.921,198.403 158.166,198.598 158.286 C 198.793 158.407,198.953 158.810,198.953 159.183 C 198.953 159.556,199.174 159.860,199.444 159.860 C 199.763 159.860,199.884 160.134,199.789 160.646 C 199.709 161.078,199.737 161.235,199.851 160.995 C 199.976 160.731,200.751 160.558,201.808 160.558 C 203.803 160.558,204.664 160.068,207.755 157.167 C 208.853 156.137,210.659 154.882,211.769 154.378 C 212.879 153.874,214.781 152.785,215.996 151.958 C 218.061 150.552,220.006 149.745,221.336 149.740 C 222.845 149.735,222.849 149.679,223.118 126.561 C 223.259 114.448,223.396 103.855,223.422 103.021 C 223.509 100.264,223.978 100.358,209.848 100.278 C 202.992 100.239,197.144 100.146,196.854 100.071 C 196.563 99.995,195.974 100.091,195.545 100.282 M186.736 100.661 C 186.736 101.295,187.539 101.592,188.164 101.189 C 188.584 100.919,188.579 100.822,188.133 100.529 C 187.381 100.035,186.736 100.096,186.736 100.661 M116.674 106.806 C 116.674 107.670,116.743 108.024,116.826 107.592 C 116.909 107.160,116.909 106.453,116.826 106.021 C 116.743 105.589,116.674 105.942,116.674 106.806 M144.154 107.309 C 144.154 107.970,144.274 108.585,144.422 108.676 C 144.569 108.767,144.631 108.227,144.560 107.475 C 144.399 105.787,144.154 105.687,144.154 107.309 M74.782 108.699 C 74.782 109.320,74.901 109.532,75.123 109.309 C 75.346 109.087,75.346 108.755,75.123 108.357 C 74.835 107.842,74.782 107.895,74.782 108.699 M177.312 109.207 C 177.312 109.677,178.087 110.215,179.147 110.481 C 180.443 110.806,180.396 110.116,179.075 109.433 C 177.913 108.832,177.312 108.755,177.312 109.207 M90.750 110.609 C 80.728 113.345,75.505 122.900,79.621 130.969 C 80.606 132.899,80.663 132.576,79.743 130.279 C 73.618 114.983,95.689 103.433,107.871 115.559 C 122.070 129.692,98.504 149.074,83.226 135.829 C 82.639 135.320,82.847 135.569,83.690 136.382 C 91.963 144.365,107.046 141.140,111.209 130.497 C 115.859 118.613,103.925 107.013,90.750 110.609 M93.335 112.794 L 92.670 113.546 93.627 112.930 C 95.235 111.895,97.731 112.980,97.731 114.714 C 97.731 116.610,94.938 117.652,93.432 116.318 C 92.766 115.727,92.756 115.731,93.136 116.455 C 93.816 117.753,91.184 119.013,90.446 117.743 C 89.956 116.901,89.942 117.466,90.430 118.378 C 90.695 118.873,91.035 119.027,91.567 118.893 C 93.250 118.471,93.207 119.205,91.443 121.055 C 89.034 123.580,88.990 125.091,91.261 127.267 C 96.421 132.211,103.919 126.181,99.106 120.959 C 97.367 119.073,97.371 118.674,99.127 118.674 C 99.895 118.674,100.524 118.544,100.524 118.385 C 100.524 118.226,100.092 118.158,99.564 118.233 C 97.939 118.463,97.131 117.584,97.649 116.150 C 98.781 113.023,95.434 110.419,93.335 112.794 M322.164 112.874 C 322.164 113.248,323.203 115.183,323.404 115.183 C 323.500 115.183,323.319 114.673,323.001 114.049 C 322.353 112.775,322.164 112.509,322.164 112.874 M85.243 115.029 C 84.259 115.718,84.225 117.265,85.171 118.373 L 85.874 119.197 85.291 118.130 C 84.454 116.602,84.862 115.291,86.305 114.875 C 87.042 114.662,87.188 114.537,86.727 114.517 C 86.338 114.499,85.670 114.730,85.243 115.029 M324.037 118.105 C 322.557 119.796,323.015 121.465,326.868 128.412 C 328.482 131.322,331.326 136.722,333.187 140.412 C 336.818 147.608,343.637 160.745,345.649 164.420 C 347.160 167.179,348.243 170.421,348.733 173.647 C 349.133 176.280,349.962 178.387,351.122 179.718 C 352.245 181.006,352.396 180.295,351.391 178.449 C 350.863 177.478,350.259 175.468,349.936 173.607 C 349.148 169.064,348.368 167.052,344.880 160.558 C 343.178 157.391,339.466 150.244,336.630 144.677 C 333.795 139.110,330.137 132.120,328.503 129.145 C 326.868 126.169,325.236 123.185,324.875 122.513 C 324.364 121.560,324.268 120.889,324.439 119.459 C 324.673 117.497,324.647 117.409,324.037 118.105 M119.968 119.717 C 120.067 120.099,120.282 120.329,120.443 120.229 C 120.787 120.017,120.475 119.023,120.065 119.023 C 119.912 119.023,119.868 119.335,119.968 119.717 M87.522 119.603 C 88.968 120.187,87.440 122.005,85.776 121.681 L 84.642 121.461 85.689 122.159 C 86.954 123.003,87.391 123.031,88.107 122.314 C 89.395 121.027,89.106 119.341,87.609 119.405 C 87.252 119.420,87.225 119.483,87.522 119.603 M101.933 119.680 C 101.883 121.442,104.048 123.275,105.837 122.985 C 107.163 122.770,108.551 123.310,108.551 124.042 C 108.551 124.824,107.257 125.716,106.223 125.647 C 104.546 125.534,104.448 125.597,102.956 127.723 C 101.735 129.465,101.096 129.994,98.920 131.069 C 96.489 132.271,95.842 132.988,96.707 133.522 C 96.931 133.660,97.036 133.494,96.969 133.107 C 96.889 132.639,97.291 132.248,98.429 131.690 C 100.751 130.550,101.214 130.633,101.263 132.199 C 101.302 133.427,101.318 133.445,101.525 132.498 C 101.849 131.012,102.741 130.579,103.999 131.297 C 104.771 131.739,104.973 131.764,104.834 131.402 C 104.733 131.139,104.114 130.747,103.460 130.531 C 101.991 130.046,101.989 129.915,103.420 128.038 C 104.369 126.793,104.828 126.492,106.025 126.331 C 106.825 126.223,107.799 125.845,108.190 125.491 C 109.858 123.982,108.334 121.865,105.906 122.321 C 104.362 122.610,103.118 121.889,102.429 120.305 C 102.164 119.696,101.941 119.414,101.933 119.680 M97.890 120.913 C 101.200 122.296,101.028 126.417,97.592 128.081 C 93.749 129.941,89.192 126.263,91.319 123.018 C 92.708 120.897,95.620 119.965,97.890 120.913 M81.675 121.815 C 80.421 123.069,81.226 126.031,82.810 125.993 C 83.050 125.987,82.932 125.804,82.548 125.586 C 80.425 124.383,81.083 121.736,83.595 121.373 L 84.642 121.222 83.508 121.169 C 82.785 121.136,82.120 121.370,81.675 121.815 M85.686 125.945 C 86.451 126.120,86.941 126.589,87.527 127.708 C 87.966 128.547,88.636 129.627,89.014 130.108 C 89.978 131.333,89.884 131.588,88.470 131.588 C 87.430 131.588,87.123 131.396,86.516 130.366 C 85.702 128.987,84.377 128.708,83.795 129.795 C 83.392 130.548,83.775 131.141,85.253 132.057 C 85.781 132.384,86.218 132.923,86.224 133.254 C 86.243 134.306,87.851 135.777,88.982 135.777 C 89.791 135.777,90.750 134.356,90.750 133.159 C 90.750 131.812,91.263 131.618,93.036 132.292 C 93.761 132.568,93.926 132.815,93.774 133.397 C 93.592 134.094,93.618 134.105,94.156 133.567 C 94.913 132.811,94.519 132.441,92.142 131.673 C 90.231 131.056,89.404 130.233,87.430 126.985 C 86.910 126.130,86.456 125.813,85.685 125.767 L 84.642 125.706 85.686 125.945 M62.294 131.249 C 60.966 132.587,60.011 133.682,60.172 133.682 C 60.486 133.682,64.962 129.069,64.803 128.910 C 64.751 128.858,63.622 129.911,62.294 131.249 M165.096 129.668 C 165.096 129.956,165.253 130.192,165.445 130.192 C 165.637 130.192,165.794 129.956,165.794 129.668 C 165.794 129.380,165.637 129.145,165.445 129.145 C 165.253 129.145,165.096 129.380,165.096 129.668 M85.860 130.013 C 86.300 130.543,86.122 131.588,85.593 131.588 C 84.896 131.588,84.017 130.611,84.226 130.068 C 84.500 129.353,85.291 129.327,85.860 130.013 M89.853 132.486 C 90.814 133.447,90.197 135.079,88.873 135.079 C 87.706 135.079,86.229 133.107,86.756 132.255 C 87.079 131.733,89.263 131.895,89.853 132.486 M247.621 136.161 C 248.593 137.812,250.188 140.326,251.165 141.746 C 254.695 146.881,255.230 146.612,239.473 147.620 C 232.148 148.089,232.102 148.016,236.387 142.666 C 237.971 140.689,239.722 138.448,240.279 137.686 C 244.231 132.274,245.211 132.071,247.621 136.161 M131.091 133.944 C 132.541 135.245,133.112 135.524,132.134 134.454 C 131.570 133.838,130.951 133.333,130.759 133.333 C 130.567 133.333,130.716 133.608,131.091 133.944 M98.128 135.844 C 98.101 136.380,97.747 137.018,97.305 137.328 C 96.878 137.626,96.696 137.871,96.901 137.871 C 97.606 137.871,98.488 136.543,98.330 135.718 C 98.188 134.970,98.171 134.980,98.128 135.844 M137.173 139.071 C 137.173 139.348,137.468 139.550,137.833 139.523 C 138.218 139.494,138.420 139.285,138.319 139.021 C 138.083 138.407,137.173 138.446,137.173 139.071 M52.762 140.853 C 52.257 141.959,52.258 142.059,52.763 142.059 C 52.987 142.059,53.071 141.960,52.950 141.839 C 52.829 141.718,52.894 141.312,53.095 140.936 C 53.295 140.561,53.394 140.189,53.314 140.108 C 53.233 140.028,52.985 140.363,52.762 140.853 M52.007 145.724 C 52.007 147.228,52.112 148.354,52.240 148.226 C 52.485 147.981,52.408 143.391,52.154 143.137 C 52.073 143.056,52.007 144.220,52.007 145.724 M35.951 149.583 C 35.951 151.142,35.966 151.163,36.703 150.647 C 37.190 150.306,37.654 150.227,38.017 150.421 C 38.375 150.613,38.817 150.547,39.237 150.241 C 40.129 149.588,39.348 148.551,38.184 148.843 C 37.717 148.961,37.185 148.828,36.874 148.517 C 36.075 147.718,35.951 147.860,35.951 149.583 M221.466 153.747 C 209.406 155.474,197.215 169.380,200.918 177.184 C 202.100 179.675,203.300 179.513,205.054 176.626 C 208.404 171.111,213.007 168.218,217.389 168.874 C 228.265 170.503,228.329 170.465,228.687 162.170 C 229.094 152.712,229.051 152.661,221.466 153.747 M227.212 154.783 C 227.695 155.366,227.762 156.568,227.653 162.715 C 227.548 168.620,227.776 168.411,221.836 168.017 C 212.120 167.371,210.118 168.220,204.650 175.305 C 202.293 178.359,201.161 177.595,201.500 173.180 C 201.957 167.229,206.801 161.683,216.164 156.394 C 219.054 154.761,226.315 153.702,227.212 154.783 M10.297 155.323 C 9.949 155.707,9.782 156.021,9.926 156.021 C 10.069 156.021,10.586 155.707,11.074 155.323 C 11.645 154.874,11.777 154.625,11.445 154.625 C 11.161 154.625,10.644 154.939,10.297 155.323 M9.408 156.457 C 9.369 156.601,9.315 156.837,9.288 156.981 C 9.261 157.125,9.101 157.478,8.933 157.766 C 8.703 158.161,8.778 158.148,9.241 157.713 C 9.578 157.396,9.770 156.925,9.667 156.666 C 9.564 156.407,9.447 156.313,9.408 156.457 M8.610 158.697 C 8.289 159.018,8.315 163.970,8.639 164.168 C 8.783 164.257,8.901 163.010,8.901 161.396 C 8.901 159.783,8.887 158.464,8.871 158.464 C 8.855 158.464,8.738 158.569,8.610 158.697 M263.874 169.297 C 256.936 170.092,251.744 173.578,249.338 179.058 L 248.342 181.326 248.342 189.354 C 248.342 197.359,248.345 197.386,249.215 198.604 C 249.997 199.699,250.094 200.200,250.153 203.451 C 250.253 208.986,251.206 208.982,251.959 203.444 C 252.152 202.030,252.491 198.045,252.714 194.590 C 253.623 180.495,257.811 174.793,267.963 173.832 C 271.950 173.455,273.039 172.888,272.883 171.272 C 272.701 169.397,269.374 168.667,263.874 169.297 M191.623 169.983 C 190.415 170.237,190.413 170.240,191.449 170.280 C 192.024 170.303,192.731 170.169,193.019 169.983 C 193.600 169.607,193.407 169.607,191.623 169.983 M16.318 170.238 C 17.134 170.312,18.469 170.312,19.284 170.238 C 20.100 170.165,19.433 170.105,17.801 170.105 C 16.169 170.105,15.502 170.165,16.318 170.238 M70.942 170.244 C 89.516 170.294,119.908 170.294,138.482 170.244 C 157.055 170.194,141.859 170.154,104.712 170.154 C 67.565 170.154,52.369 170.194,70.942 170.244 M271.113 170.750 C 272.394 171.813,271.633 172.237,267.539 172.746 C 258.091 173.920,252.572 180.321,251.844 190.948 C 251.118 201.545,248.933 198.340,249.402 187.367 C 249.758 179.053,251.309 175.983,256.849 172.632 C 260.599 170.364,269.270 169.220,271.113 170.750 M207.454 176.837 C 204.914 178.895,204.761 179.101,204.018 181.459 C 203.412 183.382,202.565 184.413,200.259 186.038 C 199.578 186.518,199.088 187.019,199.169 187.151 C 199.250 187.284,199.117 187.519,198.873 187.675 C 198.562 187.873,198.491 188.481,198.636 189.703 C 198.836 191.385,198.845 191.398,198.898 190.052 L 198.953 188.656 200.960 188.701 C 204.389 188.778,204.801 188.415,207.858 182.614 C 211.647 175.425,211.515 173.545,207.454 176.837 M375.480 177.700 C 374.853 178.054,374.627 179.058,375.175 179.058 C 375.619 179.058,376.352 178.093,376.211 177.695 C 376.134 177.477,375.873 177.479,375.480 177.700 M206.616 182.284 C 204.476 186.498,204.306 186.736,203.448 186.736 C 202.570 186.736,202.622 186.252,203.663 184.720 C 204.141 184.016,204.780 182.697,205.081 181.788 C 205.639 180.110,208.038 177.516,208.301 178.307 C 208.374 178.526,207.616 180.316,206.616 182.284 M345.201 194.939 C 344.847 195.365,344.865 195.462,345.295 195.462 C 345.586 195.462,345.915 195.227,346.025 194.939 C 346.136 194.651,346.093 194.415,345.931 194.415 C 345.768 194.415,345.440 194.651,345.201 194.939 M235.907 198.482 C 235.286 199.229,234.964 226.300,235.199 257.990 L 235.364 280.204 234.286 280.761 C 232.720 281.571,232.664 282.284,233.899 285.697 C 235.453 289.991,237.259 291.220,239.402 289.442 L 240.139 288.831 240.213 251.832 C 240.284 216.366,240.074 206.352,239.267 206.538 C 238.716 206.665,238.435 212.470,238.892 214.288 C 239.554 216.925,239.187 287.813,238.508 288.493 C 237.241 289.760,236.088 288.715,234.899 285.224 L 234.031 282.673 235.189 281.728 L 236.346 280.783 236.330 241.352 C 236.314 199.887,236.323 199.626,237.706 199.300 C 238.179 199.188,238.617 198.829,238.680 198.501 C 238.837 197.687,236.580 197.672,235.907 198.482 M250.237 212.612 C 247.986 216.818,247.165 275.014,249.310 278.288 C 250.195 279.638,251.470 279.555,252.236 278.098 C 252.966 276.708,253.356 222.071,252.672 216.940 C 252.089 212.558,251.154 210.897,250.237 212.612 M251.704 219.542 C 252.127 221.610,251.750 275.615,251.307 276.443 C 250.718 277.545,250.116 277.099,249.854 275.364 C 248.921 269.208,249.266 221.642,250.262 219.021 C 250.720 217.819,251.402 218.065,251.704 219.542 M249.440 281.369 C 246.111 283.125,241.381 288.502,242.248 289.546 C 244.179 291.872,252.705 286.031,252.705 282.382 C 252.705 280.640,251.520 280.272,249.440 281.369 M251.204 282.932 C 251.586 284.079,246.596 288.656,244.964 288.656 C 243.463 288.656,243.750 287.989,246.335 285.462 C 249.407 282.459,250.805 281.732,251.204 282.932 M215.082 298.007 C 214.468 298.621,213.734 301.460,214.096 301.821 C 214.424 302.150,217.110 302.345,218.279 302.126 C 219.599 301.878,219.740 300.687,218.715 298.429 C 218.189 297.270,216.066 297.023,215.082 298.007 M264.419 298.406 C 262.651 300.359,264.157 302.340,267.144 301.991 L 268.321 301.854 267.977 300.403 C 267.406 297.993,265.673 297.021,264.419 298.406 M217.675 298.954 C 218.014 299.837,217.490 301.222,216.817 301.222 C 215.483 301.222,214.958 299.927,215.906 298.978 C 216.600 298.284,217.414 298.273,217.675 298.954 M368.238 299.040 C 368.239 299.184,368.793 299.314,369.470 299.329 C 370.224 299.345,370.528 299.246,370.254 299.072 C 369.691 298.715,368.237 298.692,368.238 299.040 M266.143 300.524 C 265.974 300.797,265.773 300.817,265.541 300.584 C 265.349 300.392,265.306 300.051,265.445 299.825 C 265.614 299.552,265.815 299.532,266.047 299.765 C 266.239 299.957,266.282 300.298,266.143 300.524 " stroke="none" fill="#2db39a" fill-rule="evenodd"></path><path id="path3" d="M230.366 14.485 C 228.927 14.727,226.492 15.246,224.956 15.639 C 223.421 16.032,220.950 16.610,219.465 16.925 C 212.126 18.480,207.349 25.329,209.233 31.592 C 209.512 32.519,209.679 33.378,209.603 33.500 C 209.528 33.622,209.826 34.356,210.266 35.130 C 211.081 36.566,211.811 45.593,211.626 51.944 C 211.567 53.961,211.647 54.229,212.561 55.085 C 213.271 55.749,213.935 57.136,214.849 59.860 C 218.835 71.746,223.074 76.255,230.736 76.760 C 233.643 76.952,234.653 77.159,235.455 77.725 C 237.050 78.852,240.746 80.628,241.496 80.628 C 243.047 80.628,246.367 75.597,246.687 72.762 C 246.962 70.319,246.147 70.191,242.340 72.080 C 231.122 77.646,224.210 74.924,218.473 62.682 C 216.406 58.270,214.582 41.757,215.710 37.670 C 217.757 30.257,231.066 30.214,238.094 37.599 C 241.493 41.170,241.994 42.361,242.231 47.446 C 242.489 52.956,242.880 53.752,245.334 53.752 C 246.727 53.752,247.120 53.142,247.122 50.977 C 247.128 44.951,251.958 42.762,255.894 47.002 C 259.399 50.778,258.217 55.594,253.106 58.361 C 250.955 59.525,251.691 60.236,256.115 61.270 C 261.175 62.452,264.630 60.958,264.031 57.847 C 263.895 57.140,264.394 55.095,265.628 51.309 C 266.300 49.247,266.354 48.452,266.220 42.583 L 266.072 36.126 264.770 32.810 C 259.354 19.011,245.943 11.868,230.366 14.485 M198.756 38.831 L 197.731 39.965 198.866 38.940 C 199.490 38.376,200.000 37.866,200.000 37.806 C 200.000 37.536,199.712 37.773,198.756 38.831 M192.792 58.988 C 192.792 60.620,192.852 61.287,192.926 60.471 C 192.999 59.655,192.999 58.320,192.926 57.504 C 192.852 56.688,192.792 57.356,192.792 58.988 M192.761 62.309 C 192.906 62.470,192.728 62.927,192.364 63.325 C 191.499 64.272,191.002 65.808,191.673 65.463 C 191.933 65.329,191.875 65.442,191.543 65.714 C 190.390 66.660,189.340 71.666,189.814 73.959 C 190.041 75.059,190.227 76.487,190.227 77.134 C 190.227 77.780,190.783 80.092,191.463 82.270 C 192.780 86.487,192.775 86.911,191.411 86.911 C 188.717 86.911,186.387 89.835,186.387 93.215 C 186.387 94.467,186.324 94.539,185.044 94.755 C 182.532 95.180,180.105 98.198,180.105 100.897 C 180.105 101.243,179.739 101.587,179.239 101.712 C 177.928 102.041,175.930 103.967,175.321 105.486 C 174.914 106.505,174.381 107.044,173.167 107.664 C 170.238 109.161,168.240 111.956,168.235 114.561 C 168.233 115.657,168.172 115.709,166.830 115.760 C 164.120 115.862,162.704 117.466,162.332 120.855 C 162.317 120.999,161.479 121.120,160.471 121.125 C 158.183 121.134,156.182 122.021,154.415 123.809 C 153.588 124.645,152.455 125.356,151.527 125.621 C 149.819 126.109,146.461 128.985,146.742 129.718 C 146.837 129.966,146.741 130.277,146.528 130.409 C 146.286 130.559,146.239 130.489,146.403 130.224 C 146.600 129.905,146.330 129.853,145.322 130.015 C 142.952 130.398,142.321 130.570,142.530 130.779 C 142.771 131.020,140.972 132.500,140.589 132.376 C 140.445 132.329,140.071 132.682,139.757 133.161 C 139.293 133.869,138.902 134.031,137.663 134.031 C 135.792 134.031,133.055 135.036,133.741 135.471 C 134.084 135.689,134.092 135.767,133.774 135.771 C 132.785 135.783,134.305 144.078,135.518 145.291 C 136.536 146.309,137.030 147.989,136.435 148.406 C 136.036 148.685,57.422 148.528,53.229 148.240 L 52.182 148.168 51.986 145.201 C 51.821 142.699,51.780 143.067,51.724 147.541 C 51.659 152.799,51.666 152.856,52.545 153.735 C 54.816 156.006,51.605 155.846,94.939 155.846 L 134.206 155.846 135.428 155.084 C 137.832 153.584,138.220 153.015,138.220 150.991 L 138.220 149.129 139.631 148.904 C 140.594 148.750,141.521 148.237,142.550 147.288 C 143.947 146.000,144.205 145.899,146.089 145.899 C 148.822 145.899,150.827 144.896,152.456 142.714 C 153.248 141.654,153.995 141.011,154.438 141.010 C 156.316 141.005,158.007 140.179,159.708 138.436 C 160.851 137.264,161.984 136.472,162.917 136.192 C 164.398 135.749,167.705 132.837,167.361 132.281 C 167.261 132.118,167.363 131.872,167.588 131.733 C 167.843 131.575,167.903 131.632,167.747 131.883 C 167.365 132.502,167.843 132.365,169.056 131.509 C 170.541 130.459,171.280 129.543,171.750 128.166 C 172.059 127.259,172.528 126.842,173.943 126.216 C 175.607 125.481,178.010 123.285,178.010 122.502 C 178.010 122.317,178.551 121.568,179.211 120.837 C 179.871 120.106,180.472 119.055,180.547 118.500 C 180.652 117.714,181.048 117.294,182.340 116.598 C 184.179 115.606,185.685 113.513,185.688 111.944 C 185.689 111.324,185.910 110.906,186.300 110.787 C 189.098 109.936,190.784 108.037,191.143 105.333 C 191.342 103.831,191.504 103.591,192.802 102.878 C 193.593 102.443,194.395 101.739,194.583 101.312 C 195.079 100.185,195.489 100.111,200.873 100.183 C 203.560 100.219,209.483 100.271,214.035 100.299 C 223.488 100.356,223.506 100.361,223.422 103.021 C 223.396 103.855,223.259 114.448,223.118 126.561 C 222.849 149.679,222.845 149.735,221.336 149.740 C 220.006 149.745,218.061 150.552,215.996 151.958 C 214.781 152.785,212.879 153.874,211.769 154.378 C 210.659 154.882,208.853 156.137,207.755 157.167 C 204.662 160.069,203.803 160.558,201.804 160.558 L 200.051 160.558 199.107 162.565 C 198.251 164.384,196.197 167.764,195.296 168.836 C 195.099 169.069,194.774 169.462,194.572 169.709 C 193.129 171.470,193.044 177.878,194.413 181.652 C 195.826 185.547,197.396 187.791,198.312 187.225 C 198.472 187.126,198.604 187.220,198.604 187.435 C 198.604 187.649,198.763 187.726,198.959 187.606 C 199.154 187.485,199.248 187.279,199.167 187.149 C 199.087 187.018,199.578 186.518,200.259 186.038 C 202.596 184.391,203.410 183.387,204.049 181.360 C 205.271 177.484,211.404 173.084,210.704 176.586 C 210.593 177.140,209.299 179.877,207.829 182.668 C 204.806 188.405,204.383 188.778,200.976 188.701 L 198.984 188.656 198.855 190.052 C 198.728 191.425,198.724 191.419,198.600 189.703 C 198.150 183.456,197.829 201.591,197.716 239.603 L 197.586 283.221 195.952 284.455 C 193.486 286.317,192.974 286.551,191.355 286.557 L 189.866 286.562 190.047 248.080 C 190.146 226.915,190.308 200.717,190.407 189.861 L 190.587 170.123 188.400 168.698 L 186.213 167.273 181.093 167.057 L 175.973 166.841 174.112 168.430 L 172.251 170.018 172.023 232.042 C 171.897 266.155,171.687 295.125,171.557 296.418 L 171.320 298.769 172.584 299.962 C 175.164 302.396,174.160 302.300,194.803 302.080 C 215.543 301.859,213.880 302.029,214.188 300.101 C 214.760 296.529,218.552 296.224,219.088 299.707 C 219.451 302.070,217.934 301.920,241.361 301.920 C 264.449 301.920,263.195 302.028,263.679 300.000 C 264.419 296.900,267.127 297.049,267.902 300.232 L 268.270 301.745 275.831 301.839 L 283.392 301.933 284.776 300.967 C 286.739 299.595,286.911 299.000,286.911 293.584 C 286.911 289.648,286.778 288.368,286.183 286.555 L 285.456 284.338 286.160 282.920 C 287.512 280.196,287.690 278.618,287.433 271.671 C 287.122 263.266,287.122 234.084,287.433 224.869 L 287.672 217.801 296.018 217.801 L 304.363 217.801 304.363 258.281 L 304.363 298.761 305.615 299.904 C 307.691 301.799,308.040 301.894,312.949 301.907 C 317.759 301.920,318.925 301.545,320.673 299.421 C 321.000 299.023,321.144 292.159,321.282 270.305 C 321.382 254.578,321.546 236.331,321.648 229.756 L 321.833 217.801 347.304 217.801 L 372.775 217.801 372.775 258.263 L 372.775 298.726 374.258 300.151 C 377.099 302.879,384.681 303.127,387.651 300.589 L 389.157 299.302 389.163 252.182 C 389.166 226.265,389.054 205.218,388.913 205.410 C 388.423 206.077,387.401 206.099,349.040 206.278 C 301.216 206.500,285.278 206.328,284.809 205.585 C 284.146 204.534,284.399 200.068,285.166 199.302 C 286.015 198.452,284.198 198.498,313.613 198.590 L 336.300 198.661 340.128 197.386 C 342.233 196.685,344.196 195.953,344.491 195.760 C 344.943 195.464,344.932 195.439,344.415 195.600 C 344.079 195.704,343.805 195.637,343.805 195.452 C 343.805 195.266,343.588 195.113,343.324 195.113 C 343.059 195.113,342.666 194.901,342.451 194.641 C 342.182 194.317,340.692 194.092,337.707 193.926 C 327.314 193.349,320.826 189.281,315.354 179.913 C 310.893 172.275,309.530 170.730,305.617 168.875 C 303.036 167.651,302.927 167.240,304.599 165.039 C 309.000 159.245,309.004 159.223,308.567 139.909 C 308.369 131.205,308.207 117.682,308.205 109.857 L 308.202 95.631 309.196 94.591 C 309.742 94.019,310.292 93.654,310.417 93.780 C 310.768 94.131,310.689 93.583,310.266 92.734 C 309.998 92.197,310.159 92.281,310.810 93.019 L 311.735 94.066 310.774 92.321 C 309.278 89.606,305.865 84.690,307.018 86.911 C 307.252 87.362,307.207 87.368,306.699 86.956 C 306.018 86.404,305.891 85.690,306.545 86.089 C 307.205 86.492,304.277 83.089,302.596 81.501 C 301.784 80.733,301.230 80.301,301.366 80.542 C 301.522 80.817,301.296 81.099,300.756 81.304 C 300.284 81.484,299.839 81.809,299.766 82.028 C 299.670 82.317,298.826 82.263,296.703 81.833 C 290.597 80.596,285.357 81.537,280.734 84.702 C 277.119 87.177,277.125 87.193,277.399 75.783 C 277.582 68.204,277.652 67.507,278.376 66.145 L 279.157 64.677 276.515 63.574 C 275.062 62.967,273.972 62.570,274.092 62.690 C 274.213 62.811,274.005 63.716,273.631 64.701 C 273.002 66.354,272.950 67.441,272.950 78.769 L 272.949 91.046 272.087 92.071 C 271.485 92.786,270.562 93.281,269.033 93.709 C 262.498 95.535,262.481 98.518,269.005 98.580 C 273.053 98.618,272.960 98.118,272.912 119.681 C 272.854 145.980,273.235 144.140,267.844 144.148 C 263.124 144.155,263.466 144.896,263.253 134.211 C 263.143 128.662,262.932 125.079,262.690 124.667 C 261.124 121.991,260.117 119.670,257.659 113.075 C 256.119 108.940,253.902 103.193,252.734 100.304 C 250.294 94.266,250.180 93.359,251.658 91.676 C 253.092 90.043,253.076 89.998,249.851 86.694 C 246.128 82.880,245.938 82.882,243.650 86.769 C 241.997 89.578,241.430 91.449,242.233 91.449 C 243.012 91.449,245.387 94.031,245.719 95.239 C 245.912 95.938,246.305 99.500,246.594 103.154 C 247.294 111.997,247.775 113.727,251.732 121.613 C 254.193 126.518,255.873 130.425,257.596 135.253 C 258.419 137.557,259.461 140.182,259.912 141.088 C 261.417 144.106,261.165 144.569,257.766 145.030 C 255.200 145.377,253.958 147.219,255.879 147.829 C 257.093 148.214,264.870 148.579,268.482 148.420 C 270.344 148.338,274.021 148.450,276.653 148.669 C 279.635 148.917,281.562 148.944,281.766 148.740 C 282.410 148.096,281.599 146.919,279.929 146.073 C 276.915 144.546,277.138 146.622,277.138 120.039 L 277.138 96.429 278.393 93.920 C 282.109 86.493,289.223 83.696,297.832 86.277 C 300.089 86.954,303.008 87.009,304.003 86.394 C 304.326 86.195,304.515 86.644,304.404 87.347 C 304.364 87.604,305.242 87.761,305.934 87.621 C 306.126 87.583,306.152 87.682,305.992 87.842 C 305.832 88.002,305.518 88.133,305.294 88.133 C 305.070 88.133,304.833 88.514,304.767 88.980 C 304.701 89.445,304.387 90.224,304.069 90.710 C 303.465 91.632,303.343 128.284,303.889 144.852 C 304.303 157.429,301.559 162.576,292.762 165.719 C 289.851 166.760,285.604 166.841,271.160 166.130 C 261.364 165.648,259.020 166.154,253.403 169.962 L 251.832 171.027 242.731 171.028 L 233.630 171.030 232.783 170.127 L 231.937 169.225 232.015 158.173 C 232.059 152.094,232.098 146.937,232.103 146.713 C 232.115 146.168,239.290 136.609,242.097 133.399 C 244.824 130.280,244.870 131.032,241.590 125.152 C 236.768 116.510,236.039 115.095,234.022 110.471 C 231.622 104.972,230.851 102.096,230.182 96.161 C 229.441 89.582,229.390 89.354,228.639 89.354 C 227.920 89.354,225.887 92.185,224.821 94.672 C 223.862 96.910,223.254 97.382,221.333 97.382 C 217.453 97.382,216.909 93.433,220.287 89.786 C 223.119 86.726,223.841 85.055,223.682 81.922 C 223.407 76.473,219.255 71.444,214.247 70.494 C 211.989 70.066,211.283 69.439,210.985 67.595 C 210.571 65.028,209.586 63.242,208.229 62.595 C 206.549 61.794,206.404 62.110,207.448 64.289 C 209.339 68.232,209.116 69.898,206.460 71.651 C 204.276 73.092,203.141 75.159,203.141 77.696 C 203.141 80.310,203.346 80.257,206.828 76.734 C 212.475 71.022,213.045 71.417,215.906 83.019 C 217.298 88.669,217.238 89.465,215.385 89.872 L 214.320 90.106 214.898 91.213 C 217.116 95.463,215.573 97.033,209.178 97.033 C 203.209 97.033,202.303 96.739,201.947 94.689 C 201.573 92.541,201.020 91.449,200.307 91.449 C 199.561 91.449,199.481 91.022,200.032 89.993 C 200.603 88.926,200.151 87.292,198.551 84.640 C 196.330 80.956,196.063 79.645,196.017 72.189 L 195.977 65.669 194.934 64.772 C 194.361 64.279,193.774 63.875,193.630 63.875 C 193.486 63.875,193.368 63.569,193.368 63.197 C 193.368 62.824,193.172 62.406,192.932 62.268 C 192.692 62.130,192.615 62.149,192.761 62.309 M298.604 77.487 C 299.937 78.831,301.107 79.930,301.203 79.930 C 301.299 79.930,300.286 78.831,298.953 77.487 C 297.619 76.143,296.450 75.044,296.354 75.044 C 296.258 75.044,297.270 76.143,298.604 77.487 M304.212 83.770 L 306.283 86.038 304.353 84.293 C 303.292 83.333,302.232 82.163,301.997 81.693 C 301.762 81.222,301.699 80.987,301.856 81.169 C 302.013 81.352,303.073 82.522,304.212 83.770 M209.773 88.647 C 209.773 89.206,211.844 90.103,212.850 89.980 L 213.787 89.865 212.565 89.087 C 211.308 88.287,209.773 88.045,209.773 88.647 M81.931 100.173 C 81.444 100.556,80.618 101.599,80.096 102.490 C 79.573 103.382,78.615 104.577,77.967 105.146 C 76.939 106.049,76.228 107.892,77.121 107.340 C 77.304 107.227,78.050 107.074,78.779 107.001 C 87.845 106.086,88.731 105.610,86.412 102.901 C 85.727 102.100,85.166 101.262,85.166 101.038 C 85.166 99.661,83.238 99.145,81.931 100.173 M188.133 100.529 C 188.579 100.822,188.584 100.919,188.164 101.189 C 187.539 101.592,186.736 101.295,186.736 100.661 C 186.736 100.096,187.381 100.035,188.133 100.529 M106.114 102.259 C 105.445 102.426,104.533 102.987,104.086 103.506 L 103.275 104.449 104.017 105.239 C 104.660 105.923,105.213 106.053,108.139 106.211 C 109.998 106.311,112.043 106.480,112.685 106.587 C 113.681 106.753,113.790 106.707,113.428 106.270 C 113.151 105.936,113.134 105.759,113.379 105.759 C 113.585 105.759,112.996 104.957,112.071 103.976 C 110.239 102.035,108.741 101.603,106.114 102.259 M46.766 108.618 C 46.762 109.193,46.676 109.291,46.465 108.958 C 46.241 108.604,46.125 108.667,45.980 109.220 C 45.842 109.747,45.510 109.948,44.773 109.948 C 40.674 109.948,36.845 112.926,35.681 117.019 C 34.500 121.170,34.351 127.738,35.380 130.239 C 36.164 132.145,36.170 132.231,35.563 133.031 C 34.328 134.659,34.101 136.754,34.890 139.225 C 35.484 141.083,35.602 142.377,35.602 147.038 L 35.602 152.624 36.562 153.482 C 39.753 156.334,50.251 155.471,50.251 152.356 C 50.251 151.147,48.701 146.208,47.980 145.118 L 47.115 143.812 47.815 142.506 C 48.892 140.497,49.011 139.181,48.304 137.106 C 47.566 134.941,47.523 134.672,47.834 134.206 C 48.519 133.179,48.860 130.478,48.489 129.007 C 48.162 127.708,48.195 127.333,48.704 126.557 C 50.051 124.501,48.807 121.347,46.145 120.072 C 45.321 119.677,44.731 119.219,44.833 119.053 C 45.217 118.432,47.436 118.289,48.462 118.820 C 49.313 119.260,68.541 119.722,70.244 119.343 C 70.388 119.311,70.655 119.265,70.838 119.241 C 71.528 119.150,73.766 116.329,74.609 114.485 C 75.521 112.492,76.145 108.406,75.435 109.085 C 75.194 109.315,73.957 109.355,71.997 109.197 C 70.313 109.061,64.028 108.923,58.030 108.889 C 52.032 108.856,47.204 108.698,47.302 108.539 C 47.401 108.381,47.321 108.152,47.126 108.031 C 46.925 107.907,46.769 108.162,46.766 108.618 M194.572 119.895 C 194.573 126.614,194.620 129.314,194.677 125.894 C 194.734 122.474,194.734 116.976,194.676 113.677 C 194.619 110.378,194.572 113.176,194.572 119.895 M116.073 109.437 C 115.037 111.621,116.585 115.987,119.189 118.223 L 120.593 119.429 131.188 119.391 C 144.249 119.344,144.409 119.288,145.261 114.456 C 145.644 112.278,145.367 108.408,144.850 108.727 C 144.686 108.829,144.464 108.771,144.357 108.598 C 144.243 108.414,143.544 108.417,142.655 108.607 C 141.120 108.934,119.278 108.832,117.555 108.490 C 116.752 108.330,116.531 108.471,116.073 109.437 M179.075 109.433 C 180.396 110.116,180.443 110.806,179.147 110.481 C 178.087 110.215,177.312 109.677,177.312 109.207 C 177.312 108.755,177.913 108.832,179.075 109.433 M378.723 118.647 C 378.525 119.017,378.393 119.685,378.429 120.131 C 378.465 120.577,378.032 121.728,377.467 122.688 L 376.440 124.433 376.265 151.473 L 376.091 178.514 375.292 178.912 C 374.853 179.130,374.107 179.673,373.634 180.117 L 372.775 180.924 372.775 188.182 L 372.775 195.440 374.709 196.900 L 376.643 198.360 382.388 198.374 C 385.547 198.382,388.133 198.489,388.133 198.612 C 388.133 198.736,388.368 198.837,388.656 198.837 C 389.453 198.837,389.448 126.154,388.652 123.896 C 387.105 119.512,380.210 115.868,378.723 118.647 M165.794 129.668 C 165.794 129.956,165.637 130.192,165.445 130.192 C 165.253 130.192,165.096 129.956,165.096 129.668 C 165.096 129.380,165.253 129.145,165.445 129.145 C 165.637 129.145,165.794 129.380,165.794 129.668 M141.167 131.385 C 140.794 131.657,140.582 131.972,140.695 132.085 C 140.808 132.198,141.185 131.975,141.534 131.590 C 142.275 130.771,142.123 130.686,141.167 131.385 M138.319 139.021 C 138.420 139.285,138.218 139.494,137.833 139.523 C 137.468 139.550,137.173 139.348,137.173 139.071 C 137.173 138.446,138.083 138.407,138.319 139.021 M193.798 145.899 C 193.798 146.571,193.870 146.846,193.958 146.510 C 194.046 146.174,194.046 145.624,193.958 145.288 C 193.870 144.952,193.798 145.227,193.798 145.899 M36.874 148.517 C 37.185 148.828,37.717 148.961,38.184 148.843 C 39.348 148.551,40.129 149.588,39.237 150.241 C 38.817 150.547,38.375 150.613,38.017 150.421 C 37.654 150.227,37.190 150.306,36.703 150.647 C 35.966 151.163,35.951 151.142,35.951 149.583 C 35.951 147.860,36.075 147.718,36.874 148.517 M228.525 154.711 C 229.353 157.250,228.619 168.159,227.561 169.020 C 226.614 169.791,223.186 169.742,217.389 168.874 C 213.007 168.218,208.404 171.111,205.054 176.626 C 203.300 179.513,202.100 179.675,200.918 177.184 C 197.215 169.380,209.406 155.474,221.466 153.747 C 226.816 152.981,228.013 153.145,228.525 154.711 M26.644 167.166 C 24.596 167.329,23.956 167.532,23.108 168.290 C 22.539 168.799,21.741 169.393,21.334 169.611 L 20.593 170.007 20.593 234.440 L 20.593 298.873 21.551 299.785 C 24.080 302.194,24.283 302.269,28.296 302.269 C 33.241 302.269,34.006 302.075,35.813 300.368 L 37.347 298.919 37.337 234.538 L 37.326 170.157 35.391 168.499 C 33.250 166.664,33.149 166.649,26.644 167.166 M271.902 169.754 C 272.517 170.041,272.807 170.490,272.883 171.272 C 273.039 172.888,271.950 173.455,267.963 173.832 C 258.516 174.726,253.561 180.747,252.890 192.147 C 252.166 204.448,251.274 209.469,250.279 206.852 L 249.949 205.983 245.306 206.179 C 239.400 206.429,239.651 206.202,240.000 210.980 C 240.154 213.100,240.249 231.483,240.210 251.832 L 240.139 288.831 239.402 289.442 C 237.259 291.220,235.453 289.991,233.899 285.697 C 232.664 282.284,232.720 281.571,234.286 280.761 L 235.364 280.204 235.199 257.990 C 234.954 224.881,235.282 199.123,235.957 198.448 C 236.414 197.991,237.237 197.964,241.979 198.250 C 245.000 198.432,247.668 198.506,247.907 198.414 C 248.238 198.287,248.342 196.219,248.342 189.787 L 248.342 181.326 249.338 179.058 C 252.593 171.645,265.004 166.528,271.902 169.754 M251.823 213.013 C 252.915 215.626,253.043 219.686,252.937 248.342 C 252.822 279.835,252.864 279.232,250.784 279.232 C 248.930 279.232,248.714 278.218,248.449 268.253 C 247.445 230.653,248.944 206.121,251.823 213.013 M252.030 280.990 C 254.669 282.402,248.181 290.052,244.344 290.052 C 240.926 290.052,241.134 288.761,245.176 284.880 C 248.934 281.273,250.693 280.274,252.030 280.990 " stroke="none" fill="#203244" fill-rule="evenodd"></path><path id="path4" d="M220.768 33.684 C 219.155 34.256,218.042 35.495,217.219 37.637 C 216.551 39.373,217.017 55.741,217.811 58.464 C 219.343 63.715,224.280 71.250,227.100 72.638 C 229.614 73.876,235.932 73.864,238.743 72.616 C 241.624 71.338,246.620 68.444,247.416 67.592 C 249.153 65.734,250.611 62.723,250.611 60.992 C 250.611 58.741,251.005 58.107,253.045 57.073 C 257.448 54.841,258.178 50.287,254.630 47.172 C 251.326 44.271,248.175 46.416,248.169 51.571 C 248.167 54.125,247.338 54.943,244.982 54.716 C 241.942 54.424,241.194 52.997,241.185 47.469 C 241.170 38.144,229.817 30.478,220.768 33.684 M207.701 56.153 C 205.726 56.705,206.165 59.578,208.482 61.265 C 210.447 62.696,211.340 64.130,211.835 66.641 C 212.316 69.089,212.593 69.309,215.637 69.653 C 218.146 69.937,218.096 70.031,216.804 67.442 C 215.837 65.504,213.560 59.707,213.073 57.941 C 212.530 55.976,210.617 55.339,207.701 56.153 M260.496 63.947 C 260.092 64.387,259.207 65.856,258.531 67.211 C 256.652 70.974,253.319 75.751,250.426 78.826 C 246.989 82.480,246.960 82.312,251.865 87.278 C 256.457 91.928,256.789 92.742,254.022 92.568 C 252.697 92.484,252.329 92.593,252.027 93.155 C 251.424 94.283,251.532 94.672,254.585 102.381 C 256.195 106.447,258.264 111.791,259.181 114.256 C 262.729 123.793,262.805 123.465,262.793 98.472 C 262.787 87.073,262.877 75.607,262.992 72.992 C 263.367 64.453,262.597 61.661,260.496 63.947 M201.571 64.104 C 196.146 66.959,195.185 76.699,199.585 84.225 C 200.383 85.589,201.072 87.297,201.204 88.239 C 201.331 89.140,201.740 90.782,202.114 91.886 C 202.487 92.991,202.792 94.105,202.792 94.363 C 202.792 96.661,213.484 97.287,214.339 95.039 C 214.980 93.354,214.181 91.936,212.329 91.469 C 208.753 90.569,204.530 86.837,202.583 82.857 C 200.627 78.860,202.032 73.609,205.801 70.824 C 209.999 67.723,206.190 61.673,201.571 64.104 M224.084 77.250 C 224.084 77.548,224.319 78.806,224.606 80.044 C 225.497 83.887,224.381 87.312,221.199 90.494 C 218.712 92.980,218.716 96.085,221.204 96.267 L 222.660 96.374 224.107 93.475 C 224.902 91.880,226.457 89.319,227.563 87.784 C 228.669 86.248,229.930 84.284,230.367 83.421 C 230.803 82.557,231.610 81.193,232.159 80.391 C 233.747 78.073,233.849 78.156,228.621 77.516 C 226.990 77.316,225.301 77.053,224.869 76.930 C 224.296 76.768,224.084 76.854,224.084 77.250 M237.784 80.881 C 236.575 81.309,238.312 90.576,239.600 90.576 C 240.271 90.576,242.706 86.938,243.850 84.227 C 244.407 82.908,243.823 82.024,242.396 82.024 C 241.937 82.024,240.810 81.732,239.891 81.375 C 238.972 81.018,238.024 80.796,237.784 80.881 M240.433 93.701 C 239.878 94.918,243.973 105.410,245.002 105.410 C 245.427 105.410,245.467 100.158,245.066 96.950 C 244.643 93.562,241.500 91.359,240.433 93.701 M195.193 101.654 C 195.105 101.988,194.895 102.175,194.725 102.070 C 194.555 101.965,194.415 102.747,194.415 103.809 C 194.415 105.659,194.458 105.750,195.460 106.011 C 197.072 106.430,221.531 106.009,221.985 105.555 C 222.727 104.812,222.796 102.827,222.110 102.017 C 221.200 100.943,195.469 100.596,195.193 101.654 M89.856 111.356 C 80.395 114.356,76.162 123.265,80.290 131.490 C 87.299 145.459,109.164 142.235,111.801 126.844 C 113.587 116.415,101.284 107.732,89.856 111.356 M97.224 112.899 C 98.191 113.866,98.267 114.444,97.649 116.150 C 97.263 117.218,97.291 117.394,97.911 117.848 C 98.903 118.573,100.280 118.321,100.510 117.373 C 101.174 114.629,105.061 114.399,105.061 117.103 C 105.061 117.950,103.610 119.372,102.745 119.372 C 101.937 119.372,102.217 120.421,103.319 121.523 C 104.256 122.460,104.521 122.548,105.774 122.336 C 106.796 122.163,107.412 122.252,108.039 122.663 C 109.846 123.847,108.679 125.972,106.025 126.331 C 104.828 126.492,104.369 126.793,103.420 128.038 C 101.990 129.914,101.992 130.046,103.454 130.529 C 105.061 131.059,105.741 132.602,104.920 133.855 C 103.742 135.652,101.222 134.464,101.222 132.112 C 101.222 130.676,100.897 130.605,98.671 131.559 C 96.640 132.430,96.541 132.654,97.568 134.047 C 98.581 135.420,98.666 136.507,97.818 137.252 C 95.328 139.439,92.017 137.187,93.415 134.256 C 94.133 132.749,93.885 132.355,92.029 132.053 C 90.754 131.846,90.750 131.849,90.750 133.113 C 90.750 134.356,89.807 135.777,88.982 135.777 C 87.851 135.777,86.243 134.306,86.224 133.254 C 86.218 132.923,85.781 132.384,85.253 132.057 C 83.775 131.141,83.392 130.548,83.795 129.795 C 84.377 128.708,85.702 128.987,86.516 130.366 C 87.123 131.396,87.430 131.588,88.470 131.588 C 89.884 131.588,89.978 131.333,89.014 130.108 C 88.636 129.627,87.967 128.545,87.528 127.705 L 86.730 126.178 84.349 126.003 C 81.714 125.810,80.977 125.262,80.977 123.493 C 80.977 121.454,82.477 120.774,85.308 121.531 C 87.900 122.224,89.241 120.198,86.738 119.372 C 84.436 118.613,83.656 116.080,85.377 114.953 C 86.812 114.012,88.906 114.879,90.001 116.869 C 91.265 119.164,93.983 118.417,92.993 116.046 C 91.677 112.897,94.856 110.531,97.224 112.899 M93.326 121.288 C 90.837 122.780,90.197 124.436,91.354 126.393 C 93.603 130.201,100.244 128.700,100.244 124.384 C 100.244 121.092,96.470 119.403,93.326 121.288 M242.896 134.629 C 242.013 135.548,240.835 136.924,240.279 137.686 C 239.722 138.448,237.971 140.689,236.387 142.666 C 232.102 148.016,232.148 148.089,239.473 147.620 C 255.230 146.612,254.695 146.881,251.165 141.746 C 250.188 140.326,248.593 137.812,247.621 136.161 C 245.468 132.507,245.062 132.375,242.896 134.629 M221.225 154.806 C 212.508 156.076,202.067 165.802,201.500 173.180 C 201.161 177.595,202.293 178.359,204.650 175.305 C 210.118 168.220,212.120 167.371,221.836 168.017 C 227.776 168.411,227.548 168.620,227.653 162.715 C 227.819 153.351,228.178 153.793,221.225 154.806 M264.223 170.312 C 254.297 171.469,249.864 176.570,249.402 187.367 C 248.933 198.340,251.118 201.545,251.844 190.948 C 252.572 180.321,258.091 173.920,267.539 172.746 C 270.986 172.318,271.553 172.152,271.553 171.572 C 271.553 170.369,268.394 169.825,264.223 170.312 M206.899 179.023 C 206.119 179.708,205.419 180.773,205.081 181.788 C 204.780 182.697,204.141 184.016,203.663 184.720 C 202.622 186.252,202.570 186.736,203.448 186.736 C 204.306 186.736,204.476 186.498,206.616 182.284 C 208.677 178.225,208.749 177.399,206.899 179.023 M236.769 199.718 C 236.607 199.969,236.442 218.314,236.403 240.485 L 236.331 280.796 235.181 281.734 L 234.031 282.673 234.899 285.224 C 236.088 288.715,237.241 289.760,238.508 288.493 C 239.200 287.801,239.553 216.918,238.878 214.235 C 238.592 213.097,238.550 211.483,238.744 209.000 C 239.295 201.933,238.315 197.326,236.769 199.718 M250.262 219.021 C 249.266 221.642,248.921 269.208,249.854 275.364 C 250.116 277.099,250.718 277.545,251.307 276.443 C 251.750 275.615,252.127 221.610,251.704 219.542 C 251.402 218.065,250.720 217.819,250.262 219.021 M249.389 282.772 C 248.293 283.379,243.979 287.715,243.979 288.211 C 243.979 288.996,245.900 288.693,247.231 287.696 C 250.770 285.046,252.528 281.034,249.389 282.772 M215.906 298.978 C 215.250 299.634,215.208 300.234,215.777 300.803 C 216.486 301.513,217.422 301.287,217.658 300.350 C 218.091 298.624,217.064 297.820,215.906 298.978 M265.445 299.825 C 265.306 300.051,265.349 300.392,265.541 300.584 C 265.773 300.817,265.974 300.797,266.143 300.524 C 266.282 300.298,266.239 299.957,266.047 299.765 C 265.815 299.532,265.614 299.552,265.445 299.825 " stroke="none" fill="#f6f4e3" fill-rule="evenodd"></path></g></svg>