<svg id="svg" version="1.1" xmlns="http://www.w3.org/2000/svg" xmlns:xlink="http://www.w3.org/1999/xlink" width="40" height="8" viewBox="0 0 400 89"><g id="svgg"><path id="path0" d="M24.969 9.002 C 14.211 10.709,7.564 21.880,11.153 32.219 C 13.592 39.246,21.380 44.674,28.083 44.018 C 38.010 43.047,44.198 37.302,45.192 28.133 C 46.422 16.796,36.284 7.205,24.969 9.002 " stroke="none" fill="#2ca02c" fill-rule="evenodd"></path><path id="path1" d="M54.473 31.591 C 43.454 33.307,36.377 44.860,40.082 55.083 C 41.546 59.122,42.818 61.432,44.452 63.023 C 56.200 74.461,75.615 66.833,76.113 50.583 C 76.479 38.623,66.357 29.739,54.473 31.591 " stroke="none" fill="#ff7f0e" fill-rule="evenodd"></path><path id="path2" d="M21.583 45.999 C 11.272 47.093,4.476 54.159,4.431 63.833 C 4.341 82.890,29.903 89.019,38.362 71.969 C 44.225 60.152,34.216 44.659,21.583 45.999 " stroke="none" fill="#1f77b4" fill-rule="evenodd"></path><path id="path3" d="M24.802 7.513 C 7.574 10.040,2.848 32.503,17.449 42.460 C 20.418 44.485,20.388 44.796,17.113 45.903 C 8.804 48.712,3.855 54.986,3.549 63.099 C 2.842 81.818,25.985 90.111,37.379 75.221 C 39.652 72.251,40.662 69.365,41.074 64.659 C 41.377 61.194,41.607 60.776,42.803 61.505 L 43.355 61.842 42.828 61.075 C 41.812 59.598,40.043 55.378,39.409 52.917 C 39.028 51.437,39.021 51.424,38.831 51.952 C 38.425 53.082,38.014 52.928,35.543 50.722 C 34.557 49.842,33.182 48.722,32.488 48.234 C 29.552 46.170,29.589 45.867,32.923 44.752 C 33.913 44.420,35.594 43.746,36.659 43.254 C 39.421 41.975,39.980 41.942,40.010 43.054 C 40.016 43.296,40.151 43.127,40.414 42.548 C 41.558 40.031,44.286 36.645,46.667 34.787 L 47.250 34.332 46.714 34.436 C 45.772 34.618,45.690 34.097,46.221 31.285 C 46.805 28.195,46.925 26.320,46.677 24.182 C 45.430 13.462,35.554 5.936,24.802 7.513 M32.000 9.306 C 43.790 12.421,49.069 26.130,42.406 36.333 C 38.389 42.486,28.553 45.800,22.148 43.159 C 12.992 39.383,8.409 30.765,10.759 21.741 C 13.096 12.771,23.052 6.941,32.000 9.306 M188.962 25.655 C 182.312 27.096,179.333 30.262,179.333 35.890 C 179.333 42.140,182.033 44.372,194.083 48.084 C 198.645 49.489,200.333 50.898,200.333 53.300 C 200.333 55.867,198.437 57.254,194.654 57.452 C 190.822 57.653,188.559 56.684,187.162 54.242 C 186.081 52.352,185.133 51.932,182.171 52.031 C 178.383 52.158,177.619 53.965,179.703 57.876 C 184.164 66.252,202.908 66.437,207.722 58.152 C 209.221 55.573,209.302 50.694,207.895 47.720 C 206.378 44.512,204.015 43.190,194.083 39.991 C 189.316 38.455,187.601 37.071,187.881 34.985 C 188.143 33.031,190.130 31.833,193.110 31.833 C 195.803 31.833,196.901 32.321,198.917 34.414 C 200.682 36.247,200.887 36.331,203.622 36.332 C 207.517 36.334,208.445 34.650,206.461 31.182 C 203.901 26.708,195.845 24.164,188.962 25.655 M88.889 26.007 C 88.166 26.229,87.500 27.057,87.500 27.734 C 87.500 28.494,88.473 31.895,92.415 44.917 C 93.081 47.117,94.476 51.757,95.514 55.230 C 98.066 63.765,97.891 63.535,101.927 63.637 C 106.994 63.765,106.263 65.044,110.586 48.500 C 112.807 39.997,113.203 39.049,114.244 39.730 C 115.059 40.264,115.293 40.947,117.413 48.975 C 121.649 65.012,120.920 63.795,126.198 63.641 C 129.610 63.541,129.928 63.253,131.187 59.113 C 133.279 52.232,134.850 47.052,136.555 41.417 C 137.608 37.933,138.902 33.658,139.430 31.917 C 141.104 26.396,140.758 25.718,136.338 25.864 C 133.131 25.970,132.749 26.342,131.750 30.333 C 131.417 31.662,130.969 33.387,130.753 34.167 C 130.538 34.946,129.822 37.721,129.162 40.333 C 126.825 49.581,126.426 50.585,125.318 49.992 C 124.585 49.600,124.306 48.722,120.744 35.583 C 117.967 25.344,118.367 25.917,114.000 25.917 C 109.758 25.917,109.875 25.772,107.832 33.500 C 107.359 35.287,106.833 37.237,106.662 37.833 C 106.491 38.429,105.820 40.904,105.171 43.333 C 103.584 49.267,102.879 50.711,101.968 49.888 C 101.204 49.197,100.920 48.285,98.519 38.833 C 95.475 26.850,95.532 27.023,94.369 26.304 C 93.680 25.878,89.963 25.677,88.889 26.007 M155.417 25.981 C 153.742 26.409,153.441 26.944,151.018 33.793 C 150.475 35.328,149.343 38.458,148.503 40.750 C 140.725 61.968,140.741 61.918,141.479 62.854 C 141.933 63.429,142.927 63.667,144.877 63.667 C 147.832 63.667,148.747 63.088,149.604 60.677 C 151.530 55.258,151.228 55.459,157.597 55.369 C 164.821 55.268,164.974 55.339,166.328 59.402 C 167.552 63.072,168.058 63.525,171.073 63.638 C 174.441 63.763,175.446 63.254,175.284 61.500 C 175.216 60.758,166.878 37.399,163.755 29.200 C 162.629 26.244,162.139 25.935,158.500 25.887 C 157.079 25.869,155.692 25.911,155.417 25.981 M217.652 25.984 C 215.712 26.610,215.833 25.355,215.833 44.750 C 215.833 65.379,215.452 63.583,219.833 63.583 C 223.941 63.583,223.889 63.681,224.002 55.750 C 224.123 47.287,223.232 48.083,232.583 48.083 L 239.417 48.083 239.959 48.470 C 240.918 49.154,240.910 49.095,241.003 55.583 C 241.119 63.667,241.075 63.583,245.167 63.583 C 247.719 63.583,248.284 63.394,248.911 62.327 C 249.444 61.419,249.444 28.081,248.911 27.173 C 248.284 26.106,247.719 25.917,245.167 25.917 C 241.109 25.917,241.123 25.890,241.004 33.530 C 240.882 41.377,241.720 40.691,232.326 40.629 C 223.260 40.568,224.119 41.320,224.000 33.333 C 223.907 27.084,223.886 26.976,222.661 26.256 C 222.031 25.886,218.545 25.697,217.652 25.984 M256.333 26.023 C 254.286 26.581,254.213 26.190,259.986 45.417 C 265.115 62.497,265.129 62.535,266.336 63.240 C 267.149 63.716,271.153 63.840,272.556 63.432 C 274.354 62.909,273.875 64.228,278.161 48.000 C 279.903 41.405,280.380 39.999,280.984 39.675 C 282.050 39.105,282.567 40.280,284.500 47.667 C 289.014 64.917,288.370 63.762,293.407 63.640 C 296.953 63.554,297.329 63.252,298.479 59.561 C 300.244 53.892,307.253 30.639,307.571 29.393 C 308.311 26.501,307.481 25.733,303.753 25.864 C 300.286 25.987,300.288 25.983,298.408 33.342 C 292.928 54.787,293.276 54.553,289.248 39.500 C 285.364 24.983,285.851 25.856,281.615 25.841 C 277.105 25.824,277.433 25.334,274.418 36.583 C 271.557 47.257,271.349 47.987,270.909 48.918 C 269.508 51.879,268.953 50.730,265.843 38.417 C 262.830 26.492,262.836 26.507,261.036 26.007 C 260.273 25.795,257.128 25.806,256.333 26.023 M320.000 35.521 C 314.474 36.158,310.773 38.935,310.530 42.625 C 310.406 44.501,311.163 45.046,313.917 45.063 C 315.986 45.076,316.609 44.835,317.371 43.728 C 318.711 41.783,319.490 41.195,321.200 40.843 C 324.249 40.213,327.307 42.637,326.510 45.052 C 326.055 46.430,325.693 46.529,318.758 47.162 C 313.493 47.643,309.851 50.023,308.922 53.589 C 306.809 61.703,315.038 66.714,323.892 62.706 C 325.815 61.835,326.197 61.838,327.498 62.733 C 329.698 64.246,333.214 63.988,334.083 62.250 C 334.556 61.305,334.585 44.575,334.117 42.500 C 332.940 37.274,327.616 34.642,320.000 35.521 M379.583 35.502 C 372.812 36.197,369.077 39.633,369.800 44.503 C 370.386 48.453,373.021 50.468,380.040 52.339 C 384.444 53.512,385.672 54.343,385.697 56.169 C 385.720 57.815,384.092 58.916,381.674 58.890 C 379.272 58.864,378.416 58.407,376.250 55.988 C 374.168 53.663,369.221 54.663,369.590 57.333 C 370.166 61.499,374.682 64.055,381.500 64.074 C 388.965 64.095,393.273 61.210,393.771 55.855 C 394.217 51.049,391.123 48.045,383.878 46.251 C 379.280 45.112,378.000 44.380,378.000 42.885 C 378.000 40.162,382.667 40.021,385.321 42.665 C 386.975 44.312,388.349 44.684,390.821 44.154 C 394.351 43.397,391.994 38.192,387.329 36.442 C 385.146 35.622,382.060 35.248,379.583 35.502 M340.219 36.184 C 339.927 36.268,339.525 36.543,339.326 36.794 C 338.648 37.651,338.697 37.818,342.419 47.333 C 348.978 64.103,348.630 63.045,348.130 64.731 C 347.690 66.210,346.267 67.180,343.829 67.660 C 341.942 68.032,341.333 68.795,341.334 70.786 C 341.334 73.482,342.937 74.239,347.443 73.672 C 353.172 72.951,354.076 71.737,358.920 58.250 C 360.270 54.492,362.381 48.643,363.611 45.253 C 366.870 36.268,366.792 35.802,362.056 36.028 C 359.097 36.170,358.996 36.321,356.595 44.204 C 354.207 52.044,353.879 52.849,353.022 52.972 C 352.056 53.111,351.674 52.313,349.070 44.724 C 346.355 36.816,346.270 36.654,344.583 36.187 C 343.792 35.967,340.973 35.965,340.219 36.184 M158.616 37.250 C 159.244 37.690,159.619 38.511,160.822 42.085 C 162.764 47.854,162.493 48.501,158.135 48.499 C 153.916 48.497,153.645 47.888,155.438 42.439 C 157.063 37.502,157.637 36.564,158.616 37.250 M26.758 46.394 C 33.772 48.796,38.354 53.988,39.848 61.225 C 42.162 72.441,32.141 83.084,20.416 81.862 C 4.776 80.231,-1.329 60.727,10.583 50.445 C 14.886 46.731,22.312 44.871,26.758 46.394 M325.423 51.542 C 327.161 52.445,326.691 55.601,324.578 57.207 C 320.377 60.399,314.633 57.712,317.106 53.711 C 318.330 51.732,323.294 50.437,325.423 51.542 " stroke="none" fill="#7f7f7f" fill-rule="evenodd"></path><path id="path4" d="M0.000 44.750 L 0.000 89.500 200.000 89.500 L 400.000 89.500 400.000 44.750 L 400.000 0.000 200.000 0.000 L 0.000 0.000 0.000 44.750 M30.926 7.580 C 40.381 9.113,47.432 17.939,46.773 27.414 C 46.716 28.241,46.467 29.983,46.221 31.285 C 45.539 34.899,45.688 35.038,48.681 33.569 C 56.741 29.613,64.744 30.849,70.833 36.990 C 74.763 40.953,76.287 44.878,76.113 50.583 C 75.607 67.111,55.612 74.586,44.000 62.588 C 41.821 60.337,41.428 60.615,41.074 64.659 C 40.662 69.365,39.652 72.251,37.379 75.221 C 25.985 90.111,2.842 81.818,3.549 63.099 C 3.855 54.986,8.804 48.712,17.113 45.903 C 20.388 44.796,20.418 44.485,17.449 42.460 C 0.272 30.746,10.503 4.267,30.926 7.580 M198.500 25.883 C 203.310 27.159,206.352 29.662,207.241 33.075 C 207.864 35.469,206.903 36.334,203.622 36.332 C 200.887 36.331,200.682 36.247,198.917 34.414 C 196.901 32.321,195.803 31.833,193.110 31.833 C 190.130 31.833,188.143 33.031,187.881 34.985 C 187.601 37.071,189.316 38.455,194.083 39.991 C 204.015 43.190,206.378 44.512,207.895 47.720 C 209.302 50.694,209.221 55.573,207.722 58.152 C 202.908 66.437,184.164 66.252,179.703 57.876 C 177.619 53.965,178.383 52.158,182.171 52.031 C 185.133 51.932,186.081 52.352,187.162 54.242 C 188.559 56.684,190.822 57.653,194.654 57.452 C 198.437 57.254,200.333 55.867,200.333 53.300 C 200.333 50.898,198.645 49.489,194.083 48.084 C 187.274 45.986,184.586 44.871,182.754 43.384 C 177.628 39.222,178.207 30.797,183.848 27.461 C 187.283 25.430,194.047 24.701,198.500 25.883 M94.369 26.304 C 95.532 27.023,95.475 26.850,98.519 38.833 C 100.920 48.285,101.204 49.197,101.968 49.888 C 102.879 50.711,103.584 49.267,105.171 43.333 C 105.820 40.904,106.491 38.429,106.662 37.833 C 106.833 37.237,107.359 35.287,107.832 33.500 C 109.875 25.772,109.758 25.917,114.000 25.917 C 118.367 25.917,117.967 25.344,120.744 35.583 C 124.306 48.722,124.585 49.600,125.318 49.992 C 126.426 50.585,126.825 49.581,129.162 40.333 C 129.822 37.721,130.538 34.946,130.753 34.167 C 130.969 33.387,131.417 31.662,131.750 30.333 C 132.749 26.342,133.131 25.970,136.338 25.864 C 140.758 25.718,141.104 26.396,139.430 31.917 C 138.902 33.658,137.608 37.933,136.555 41.417 C 134.850 47.052,133.279 52.232,131.187 59.113 C 129.928 63.253,129.610 63.541,126.198 63.641 C 120.920 63.795,121.649 65.012,117.413 48.975 C 115.293 40.947,115.059 40.264,114.244 39.730 C 113.203 39.049,112.807 39.997,110.586 48.500 C 106.263 65.044,106.994 63.765,101.927 63.637 C 97.891 63.535,98.066 63.765,95.514 55.230 C 94.476 51.757,93.081 47.117,92.415 44.917 C 87.098 27.354,87.158 27.598,87.930 26.681 C 88.735 25.724,93.025 25.473,94.369 26.304 M161.784 26.294 C 162.564 26.708,163.116 27.522,163.755 29.200 C 166.878 37.399,175.216 60.758,175.284 61.500 C 175.446 63.254,174.441 63.763,171.073 63.638 C 168.058 63.525,167.552 63.072,166.328 59.402 C 164.974 55.339,164.821 55.268,157.597 55.369 C 151.228 55.459,151.530 55.258,149.604 60.677 C 148.747 63.088,147.832 63.667,144.877 63.667 C 142.927 63.667,141.933 63.429,141.479 62.854 C 140.741 61.918,140.725 61.968,148.503 40.750 C 149.343 38.458,150.475 35.328,151.018 33.793 C 153.912 25.614,153.713 25.824,158.500 25.887 C 160.815 25.918,161.156 25.960,161.784 26.294 M222.661 26.256 C 223.886 26.976,223.907 27.084,224.000 33.333 C 224.119 41.320,223.260 40.568,232.326 40.629 C 241.720 40.691,240.882 41.377,241.004 33.530 C 241.123 25.890,241.109 25.917,245.167 25.917 C 247.719 25.917,248.284 26.106,248.911 27.173 C 249.444 28.081,249.444 61.419,248.911 62.327 C 248.284 63.394,247.719 63.583,245.167 63.583 C 241.075 63.583,241.119 63.667,241.003 55.583 C 240.910 49.095,240.918 49.154,239.959 48.470 L 239.417 48.083 232.583 48.083 C 223.232 48.083,224.123 47.287,224.002 55.750 C 223.889 63.681,223.941 63.583,219.833 63.583 C 215.452 63.583,215.833 65.379,215.833 44.750 C 215.833 26.429,215.801 27.054,216.791 26.405 C 217.843 25.716,221.580 25.621,222.661 26.256 M261.036 26.007 C 262.836 26.507,262.830 26.492,265.843 38.417 C 268.953 50.730,269.508 51.879,270.909 48.918 C 271.349 47.987,271.557 47.257,274.418 36.583 C 277.433 25.334,277.105 25.824,281.615 25.841 C 285.851 25.856,285.364 24.983,289.248 39.500 C 291.877 49.324,292.295 50.413,293.315 50.089 C 294.116 49.835,294.605 48.226,298.408 33.342 C 300.288 25.983,300.286 25.987,303.753 25.864 C 307.481 25.733,308.311 26.501,307.571 29.393 C 307.253 30.639,300.244 53.892,298.479 59.561 C 297.329 63.252,296.953 63.554,293.407 63.640 C 288.370 63.762,289.014 64.917,284.500 47.667 C 282.567 40.280,282.050 39.105,280.984 39.675 C 280.380 39.999,279.903 41.405,278.161 48.000 C 273.875 64.228,274.354 62.909,272.556 63.432 C 271.153 63.840,267.149 63.716,266.336 63.240 C 265.129 62.535,265.115 62.497,259.986 45.417 C 254.751 27.982,254.619 27.447,255.355 26.624 C 256.009 25.893,259.327 25.533,261.036 26.007 M324.478 35.506 C 330.202 36.093,333.157 38.237,334.117 42.500 C 334.585 44.575,334.556 61.305,334.083 62.250 C 333.214 63.988,329.698 64.246,327.498 62.733 C 326.197 61.838,325.815 61.835,323.892 62.706 C 317.027 65.814,310.152 63.656,308.843 57.981 C 307.508 52.190,311.510 47.824,318.758 47.162 C 325.693 46.529,326.055 46.430,326.510 45.052 C 327.307 42.637,324.249 40.213,321.200 40.843 C 319.490 41.195,318.711 41.783,317.371 43.728 C 316.609 44.835,315.986 45.076,313.917 45.063 C 311.163 45.046,310.406 44.501,310.530 42.625 C 310.844 37.855,316.959 34.734,324.478 35.506 M384.917 35.778 C 388.396 36.453,390.987 38.173,392.088 40.538 C 393.212 42.953,392.150 44.333,389.167 44.333 C 387.333 44.333,386.737 44.074,385.321 42.665 C 382.667 40.021,378.000 40.162,378.000 42.885 C 378.000 44.380,379.280 45.112,383.878 46.251 C 391.123 48.045,394.217 51.049,393.771 55.855 C 393.273 61.210,388.965 64.095,381.500 64.074 C 374.682 64.055,370.166 61.499,369.590 57.333 C 369.221 54.663,374.168 53.663,376.250 55.988 C 378.416 58.407,379.272 58.864,381.674 58.890 C 384.092 58.916,385.720 57.815,385.697 56.169 C 385.672 54.343,384.444 53.512,380.040 52.339 C 373.021 50.468,370.386 48.453,369.800 44.503 C 368.873 38.258,376.127 34.071,384.917 35.778 M344.583 36.187 C 346.270 36.654,346.355 36.816,349.070 44.724 C 351.674 52.313,352.056 53.111,353.022 52.972 C 353.879 52.849,354.207 52.044,356.595 44.204 C 358.996 36.321,359.097 36.170,362.056 36.028 C 366.792 35.802,366.870 36.268,363.611 45.253 C 362.381 48.643,360.270 54.492,358.920 58.250 C 354.076 71.737,353.172 72.951,347.443 73.672 C 342.937 74.239,341.334 73.482,341.334 70.786 C 341.333 68.795,341.942 68.032,343.829 67.660 C 346.888 67.057,348.337 65.685,348.332 63.397 C 348.330 62.612,347.797 61.085,345.254 54.583 C 344.179 51.833,342.903 48.571,342.419 47.333 C 338.697 37.818,338.648 37.651,339.326 36.794 C 339.919 36.045,342.851 35.707,344.583 36.187 M157.591 37.394 C 156.976 38.009,156.626 38.831,155.438 42.439 C 153.645 47.888,153.916 48.497,158.135 48.499 C 162.493 48.501,162.764 47.854,160.822 42.085 C 159.198 37.260,158.597 36.388,157.591 37.394 M38.833 42.285 C 38.696 42.335,37.715 42.775,36.653 43.263 C 35.592 43.751,33.913 44.420,32.923 44.752 C 29.589 45.867,29.552 46.170,32.488 48.234 C 33.182 48.722,34.557 49.842,35.543 50.722 C 38.645 53.492,38.877 53.401,39.068 49.333 C 39.121 48.188,39.320 46.538,39.510 45.667 C 40.196 42.515,40.060 41.835,38.833 42.285 M321.538 51.348 C 317.688 51.936,315.647 54.424,316.949 56.944 C 318.821 60.567,326.417 58.069,326.417 53.830 C 326.417 51.515,325.039 50.814,321.538 51.348 " stroke="none" fill="#ffffff" fill-rule="evenodd"></path></g></svg>